#N canvas 527 50 447 296 12;
#X declare -path lib;
#X obj 45 85 tgl 30 0 start start-set start 0 -8 0 12 -262130 -1 -1
0 1;
#X obj 81 85 tgl 30 0 onoff onoff-set onoff 0 -8 0 12 -204786 -1 -1
0 1;
#X obj 116 85 tgl 30 0 gui gui-set gui 0 -8 0 12 -204800 -1 -1 0 1
;
#X obj 184 85 bng 14 250 50 0 open open-set open 16 6 0 12 -261682
-1 -1;
#X obj 184 101 bng 14 250 50 0 write write-set write 16 6 0 12 -258113
-1 -1;
#X obj 150 85 bng 30 250 50 0 reload reload-set reload 0 -8 0 12 -232576
-1 -1;
#X obj 39 9 declare -path lib;
#N canvas 189 222 765 338 globals 0;
#X obj 197 64 r onoff;
#X msg 24 189 \; quacker all quack-start \$1;
#X obj 47 118 sel;
#X obj 24 90 t f f;
#X obj 460 58 r gui;
#X text 20 20 global symbols on main gui;
#X msg 197 95 \; quacker all server bang \; quacker all onoff \$1 \;
;
#X obj 24 62 r start;
#X msg 460 84 \; quacker all gui \$1;
#X msg 47 147 \; onoff-set set 0;
#X obj 440 174 r quack-start;
#X obj 440 200 t b b;
#X msg 565 183 \; start-set 1;
#X obj 440 226 del 2000;
#X msg 440 252 \; onoff-set 1 \;;
#X connect 0 0 6 0;
#X connect 2 0 9 0;
#X connect 3 0 1 0;
#X connect 3 1 2 0;
#X connect 4 0 8 0;
#X connect 7 0 3 0;
#X connect 10 0 11 0;
#X connect 11 0 13 0;
#X connect 11 1 12 0;
#X connect 13 0 14 0;
#X restore 41 132 pd globals;
#N canvas 566 72 640 355 setup 0;
#X msg 32 86 line 0 \, auto;
#X obj 58 153 text sequence -s text t -g;
#X obj 32 29 text define setup;
#X obj 286 21 r reload;
#X obj 284 149 r write;
#X obj 286 224 r open;
#X msg 286 250 \; setup click;
#X msg 284 174 \; setup write ./setup.txt \;;
#X obj 411 224 loadbang;
#X msg 411 250 \; reload-set bang;
#X obj 32 182 text sequence -s text t;
#X obj 32 55 t b p p;
#X obj 32 122 t a a;
#X obj 112 321 print quack-\$1-setup;
#X obj 37 277 r #;
#X text 69 277 comment-out for setup;
#X obj 32 233 route #;
#X obj 32 207 list trim;
#X obj 107 209 list trim;
#X msg 286 55 \; pd dsp 1 \; start-set 0 \; setup read -c ./setup.txt
\, bang \;;
#X obj 108 237 route bang;
#X connect 0 0 12 0;
#X connect 2 0 11 0;
#X connect 3 0 19 0;
#X connect 4 0 7 0;
#X connect 5 0 6 0;
#X connect 8 0 9 0;
#X connect 10 0 17 0;
#X connect 11 0 0 0;
#X connect 11 1 10 1;
#X connect 11 2 1 1;
#X connect 12 0 10 0;
#X connect 12 1 1 0;
#X connect 16 1 18 0;
#X connect 17 0 16 0;
#X connect 18 0 20 0;
#X connect 20 1 13 0;
#X restore 41 160 pd setup;
#N canvas 524 371 451 285 test 0;
#X msg 45 49 \; quacker 1 gui 1 \; quacker 1 quack-start 1 \; quacker
vis 1 1 \;;
#X msg 254 49 \; quacker 1 quack-start 0;
#X restore 41 216 pd test;
#N canvas 0 22 450 300 quacker 0;
#X obj 10 10 r quacker;
#X obj 10 40 clone -s 1 quacker 1;
#X connect 0 0 1 0;
#X restore 41 244 pd quacker;
#N canvas 717 220 450 300 make 0;
#X obj 14 11 r make;
#X obj 79 63 max 1;
#X obj 79 89 - 1;
#X obj 79 115 s make-set;
#X obj 14 61 + 1;
#X obj 14 37 route float quacker;
#X msg 14 168 \; pd-quacker clear \, obj 10 10 r quacker \, obj 10
40 clone -s 1 quacker \$1 \, connect 0 0 1 0 \; make-set label make-\$1
;
#X connect 0 0 5 0;
#X connect 1 0 2 0;
#X connect 2 0 3 0;
#X connect 4 0 6 0;
#X connect 5 0 4 0;
#X connect 5 1 1 0;
#X restore 41 188 pd make;
#X obj 45 55 hradio 15 1 0 8 make make-set make-1 0 -8 0 10 -262144
-1 -1 0;
#X coords 0 -1 1 1 200 80 2 40 40;
