#N canvas 579 212 427 382 12;
#X declare -path lib;
#X symbolatom 164 231 18 0 0 0 server server-set server;
#X obj 110 38 tgl 30 0 quack-start quack-start-set quack-start 0 -8
0 12 -262130 -1 -1 0 1;
#X obj 200 38 tgl 30 0 onoff onoff-set onoff 0 -8 0 12 -204786 -1 -1
0 1;
#X obj 145 38 tgl 15 0 gui gui-set gui 17 7 0 10 -262144 -1 -1 0 1
;
#X obj 268 37 bng 10 250 50 0 \$0-open \$0-open-set open 12 5 0 10
-203904 -1 -1;
#X text 168 266 <-- see here;
#N canvas 560 24 490 316 \$0-guts 0;
#X obj 28 21 declare -path lib;
#X obj 29 224 namecanvas \$0-guts;
#X obj 240 36 clone -s 1 quacker 3 1 2 1 2;
#X obj 364 109 r \$0-open;
#X obj 279 111 r \$0-store;
#N canvas 0 22 816 381 onoff 0;
#X obj 287 15 r onoff;
#X text 385 296 send out symbols upon new connection, f 17;
#X obj 287 49 t f f f;
#X obj 315 135 sel 1;
#X text 637 237 turn dsp on/off in pd~;
#X text 48 139 start calls;
#X msg 43 198 1 \, 2 \, 3;
#X obj 43 224 makefilename call-%d-onoff-set;
#X obj 43 276 f;
#X obj 43 302 s;
#X obj 43 168 t b f;
#X msg 311 189 1 \, 2 \, 3;
#X obj 311 293 s;
#X obj 311 215 makefilename call-name-%d-set;
#X obj 311 164 t b b;
#X msg 384 256 \; server-set bang;
#X msg 566 184 1 \, 2 \, 3;
#X obj 566 262 f;
#X obj 566 291 s;
#X obj 566 154 t b f;
#X obj 566 236 t b a;
#X obj 311 241 t b a;
#X obj 43 250 t b a;
#X obj 566 210 makefilename call-%d-dsp;
#X connect 0 0 2 0;
#X connect 2 0 10 0;
#X connect 2 1 3 0;
#X connect 2 2 19 0;
#X connect 3 0 14 0;
#X connect 6 0 7 0;
#X connect 7 0 22 0;
#X connect 8 0 9 0;
#X connect 10 0 6 0;
#X connect 10 1 8 1;
#X connect 11 0 13 0;
#X connect 13 0 21 0;
#X connect 14 0 11 0;
#X connect 14 1 15 0;
#X connect 16 0 23 0;
#X connect 17 0 18 0;
#X connect 19 0 16 0;
#X connect 19 1 17 1;
#X connect 20 0 17 0;
#X connect 20 1 18 1;
#X connect 21 0 12 0;
#X connect 21 1 12 1;
#X connect 22 0 8 0;
#X connect 22 1 9 1;
#X connect 23 0 20 0;
#X restore 28 83 pd onoff;
#N canvas 559 244 546 403 quack-start 0;
#X obj 27 29 r quack-start;
#X msg 25 239 1 \, 2 \, 3;
#X text 244 32 quack-start opens up the quack2~.pd abstraction n-times
within n pd instances of pd~., f 30;
#X text 251 101 use with GUI if you want to debug internal quack-panel
connections., f 36;
#X msg 124 219 \; onoff-set 0;
#X obj 25 211 t b f;
#X obj 24 267 pack;
#X obj 28 74 t f f f;
#X obj 24 290 list append quack-start;
#X msg 24 313 \; \$3-\$1-set \$2;
#X obj 116 115 sel 0 1;
#X msg 171 161 \; pd dsp 1;
#X connect 0 0 7 0;
#X connect 1 0 6 0;
#X connect 5 0 1 0;
#X connect 5 1 6 1;
#X connect 6 0 8 0;
#X connect 7 0 5 0;
#X connect 7 1 10 0;
#X connect 8 0 9 0;
#X connect 10 0 4 0;
#X connect 10 1 11 0;
#X restore 28 57 pd quack-start;
#N canvas 0 22 453 436 setup 0;
#X msg 23 156 line 0 \, auto;
#X obj 23 182 text sequence \$0-names -g;
#X obj 30 31 loadbang;
#X obj 210 106 text define \$0-names;
#X obj 29 67 t b b;
#X msg 210 73 read ./setup.txt;
#X obj 25 242 r insig;
#X obj 185 245 r outsig;
#X msg 231 42 write ./setup.txt;
#X msg 25 268 \; insig-1-1 set \$1 \; insig-1-2 set \$2 \; insig-2-1
set \$3 \; insig-2-2 set \$4 \; insig-3-1 set \$5 \; insig-3-2 set
\$6 \;;
#X msg 185 271 \; outsig-1-1 set \$1 \; outsig-1-2 set \$2 \; outsig-2-1
set \$3 \; outsig-2-2 set \$4 \; outsig-3-1 set \$5 \; outsig-3-2 set
\$6 \;;
#X obj 95 32 r \$0-reload;
#X obj 101 120 t b b;
#X msg 238 160 \; quack-start-set 0 \;;
#X connect 0 0 1 0;
#X connect 2 0 4 0;
#X connect 4 0 0 0;
#X connect 4 1 5 0;
#X connect 5 0 3 0;
#X connect 6 0 9 0;
#X connect 7 0 10 0;
#X connect 8 0 3 0;
#X connect 11 0 12 0;
#X connect 12 0 4 0;
#X connect 12 1 13 0;
#X restore 30 136 pd setup;
#X msg 31 179 \; pd-setup loadbang;
#X obj 329 174 s \$0-guts;
#X msg 279 136 menusave;
#X msg 365 135 menu-open;
#X connect 3 0 11 0;
#X connect 4 0 10 0;
#X connect 10 0 9 0;
#X connect 11 0 9 0;
#X restore 81 268 pd \$0-guts;
#X obj 81 294 namecanvas \$0-quack3;
#X obj 268 49 bng 10 250 50 0 \$0-store \$0-store-set store 12 5 0
10 -203904 -1 -1;
#X obj 110 73 call_gui 1;
#X obj 110 124 call_gui 2;
#X obj 111 175 call_gui 3;
#X obj 268 61 bng 10 250 50 0 \$0-reload \$0-reload-set reload 12 5
0 10 -4032 -1 -1;
#X coords 0 -1 1 1 250 240 2 80 20;
