#N canvas 515 338 399 308 12;
#X declare -path lib;
#X symbolatom 167 64 0 0 0 0 server server-set server;
#X symbolatom 167 92 0 0 0 0 call-name-1 call-name-1-set call-name-1
;
#X symbolatom 167 116 0 0 0 0 call-name-2 call-name-2-set call-name-2
;
#X text 86 136 3rd call: cat-and-dog...;
#X obj 167 29 tgl 30 0 quack-start quack-start-set quack-start 35 3
0 12 -262130 -1 -1 0 1;
#X obj 99 172 tgl 30 0 onoff onoff-set onoff 35 15 0 12 -204786 -1
-1 0 1;
#X obj 256 95 tgl 15 0 status-1 status-1-set status-1 17 7 0 10 -204800
-1 -1 0 1;
#X obj 202 43 tgl 15 0 gui gui-set gui 17 7 0 10 -262144 -1 -1 0 1
;
#X obj 256 118 tgl 15 0 status-2 status-2-set status-2 17 7 0 10 -204800
-1 -1 0 1;
#X obj 285 25 bng 15 250 50 0 \$0-open \$0-open-set open 17 7 0 10
-203904 -1 -1;
#X text 167 224 <-- see here;
#X obj 188 165 tgl 15 0 call-1-onoff call-1-onoff-set call-1-onoff
17 7 0 10 -204786 -1 -1 0 1;
#X obj 188 195 tgl 15 0 call-2-onoff call-2-onoff-set call-2-onoff
17 7 0 10 -204786 -1 -1 0 1;
#N canvas 134 55 878 454 \$0-guts 1;
#X obj 44 155 pd~ -ninsig 2 -noutsig 2 -fifo 20;
#X obj 700 58 declare -path lib;
#X obj 44 210 route float;
#X obj 360 155 pd~ -ninsig 2 -noutsig 2 -fifo 20;
#X obj 54 126 r quack1;
#X obj 370 126 r quack2;
#X obj 360 210 route float;
#X obj 118 237 print quack1;
#X obj 434 237 print quack2;
#X obj 44 274 s status-1-set;
#X obj 360 274 s status-2-set;
#N canvas 0 111 1164 632 gui-glue 0;
#X obj 901 55 r \$0-open;
#X obj 901 81 f \$0;
#X msg 901 133 \; \$1 menu-open;
#X obj 72 500 list trim;
#X obj 72 474 list prepend quack-panel-1;
#X obj 24 391 r server;
#X msg 23 418 server \$1;
#X obj 101 396 r call-name-1;
#X msg 102 422 call-name \$1;
#X text 62 361 the first call;
#X msg 202 439 onoff \$1;
#X obj 210 408 r call-1-onoff;
#X obj 71 527 s quack1;
#X obj 405 490 list trim;
#X msg 552 424 onoff \$1;
#X obj 335 412 r server;
#X msg 334 439 server \$1;
#X msg 416 428 call-name \$1;
#X obj 415 402 r call-name-2;
#X text 402 367 the second call;
#X obj 552 397 r call-2-onoff;
#X obj 405 516 s quack2;
#X obj 405 464 list prepend quack-panel-1;
#X text 904 25 open the canvas;
#X msg 117 148 pd~ stop;
#X obj 312 67 r quack-start;
#X obj 39 77 sel 1 0;
#X text 290 258 <-- use with GUI if you want to debug internal quack-panel
connections., f 36;
#X text 252 200 <-- loads quack3~ without GUI;
#X text 195 151 <-- closes quack3;
#X obj 49 129 r gui;
#X obj 38 156 f;
#X obj 38 180 sel 0 1;
#X obj 38 311 s quack1;
#X msg 688 146 pd~ stop;
#X obj 610 75 sel 1 0;
#X obj 620 127 r gui;
#X obj 609 154 f;
#X obj 609 178 sel 0 1;
#X obj 609 309 s quack2;
#X msg 38 205 pd~ start -nogui quack2~.pd;
#X msg 122 258 pd~ start quack2~.pd;
#X msg 609 203 pd~ start -nogui quack2~.pd;
#X msg 693 256 pd~ start quack2~.pd;
#X obj 719 361 r onoff;
#X msg 840 502 \; server-set bang \; call-name-1-set bang \; call-name-2-set
bang \;;
#X text 1002 513 send out symbols upon new connection, f 17;
#X obj 719 395 t f f f;
#X obj 849 467 sel 1;
#X msg 903 404 \; quack1 pd dsp \$1 \; quack2 pd dsp \$1 \;;
#X text 893 381 turn dsp on/off in pd~;
#X text 661 464 start calls;
#X text 120 12 quack-start opens up the quack2~.pd abstraction twice
within two pd instances of pd~.;
#X obj 312 100 t f f f;
#X msg 378 139 \; pd dsp \$1;
#X obj 548 344 r call-2-fifo;
#X msg 548 370 fifo \$1;
#X msg 209 380 fifo \$1;
#X obj 209 354 r call-1-fifo;
#X obj 901 107 makefilename %d-guts;
#X obj 959 220 f \$0;
#X obj 959 246 makefilename %d-guts;
#X msg 959 272 \; \$1 menusave;
#X obj 959 188 r \$0-store;
#X msg 662 491 \; call-1-onoff-set \$1 \; call-2-onoff-set \$1;
#X connect 0 0 1 0;
#X connect 1 0 59 0;
#X connect 3 0 12 0;
#X connect 4 0 3 0;
#X connect 5 0 6 0;
#X connect 6 0 4 0;
#X connect 7 0 8 0;
#X connect 8 0 4 0;
#X connect 10 0 4 0;
#X connect 11 0 10 0;
#X connect 13 0 21 0;
#X connect 14 0 22 0;
#X connect 15 0 16 0;
#X connect 16 0 22 0;
#X connect 17 0 22 0;
#X connect 18 0 17 0;
#X connect 20 0 14 0;
#X connect 22 0 13 0;
#X connect 24 0 33 0;
#X connect 25 0 53 0;
#X connect 26 0 31 0;
#X connect 26 1 24 0;
#X connect 30 0 31 1;
#X connect 31 0 32 0;
#X connect 32 0 40 0;
#X connect 32 1 41 0;
#X connect 34 0 39 0;
#X connect 35 0 37 0;
#X connect 35 1 34 0;
#X connect 36 0 37 1;
#X connect 37 0 38 0;
#X connect 38 0 42 0;
#X connect 38 1 43 0;
#X connect 40 0 33 0;
#X connect 41 0 33 0;
#X connect 42 0 39 0;
#X connect 43 0 39 0;
#X connect 44 0 47 0;
#X connect 47 0 64 0;
#X connect 47 1 48 0;
#X connect 47 2 49 0;
#X connect 48 0 45 0;
#X connect 53 0 26 0;
#X connect 53 1 35 0;
#X connect 53 2 54 0;
#X connect 55 0 56 0;
#X connect 56 0 22 0;
#X connect 57 0 4 0;
#X connect 58 0 57 0;
#X connect 59 0 2 0;
#X connect 60 0 61 0;
#X connect 61 0 62 0;
#X connect 63 0 60 0;
#X restore 697 99 pd gui-glue;
#X obj 44 96 adc~ 1;
#X obj 272 96 adc~ 2;
#X obj 360 96 adc~ 1;
#X obj 588 96 adc~ 2;
#X obj 158 402 dac~ 1;
#X obj 272 402 dac~ 2;
#X text 426 96 <-- set inputs -->;
#X text 107 96 <-- set inputs -->;
#X text 45 31 CALL 1 ---------------------------;
#X text 365 31 CALL 2 ---------------------------;
#X text 297 350 <-- set outputs -->;
#N canvas 0 22 641 561 store-names 1;
#X obj 66 163 text set \$0-names 1;
#X obj 338 70 text set \$0-names 2;
#X obj 66 83 text set \$0-names 0;
#X msg 63 363 line 0 \, auto;
#X obj 63 389 text sequence \$0-names -g;
#X obj 66 55 list prepend server-set symbol;
#X obj 66 27 r server;
#X obj 66 117 r call-name-1;
#X obj 66 140 list prepend call-name-1-set symbol;
#X obj 338 47 list prepend call-name-2-set symbol;
#X obj 338 24 r call-name-2;
#X obj 63 203 loadbang;
#X obj 339 96 r gui;
#X obj 339 122 list prepend gui-set;
#X obj 339 148 text set \$0-names 3;
#X obj 340 201 list prepend call-1-fifo-set;
#X obj 340 227 text set \$0-names 4;
#X obj 340 175 r call-1-fifo;
#X obj 340 255 r call-2-fifo;
#X obj 340 281 list prepend call-2-fifo-set;
#X obj 340 307 text set \$0-names 5;
#X obj 148 293 text define \$0-names;
#X obj 63 287 t b b;
#X msg 148 260 read ./setup.txt;
#X obj 332 357 r insig;
#X msg 332 383 \; insig-1 set \$1 \; insig-2 set \$2 \; insig-3 set \$3 \; insig-4
set \$4;
#X obj 442 357 r outsig;
#X msg 442 383 \; outsig-1 set \$1 \; outsig-2 set \$2 \; outsig-3 set \$3 \; outsig-4
set \$4;
#X msg 169 229 write ./setup.txt;
#X connect 3 0 4 0;
#X connect 5 0 2 0;
#X connect 6 0 5 0;
#X connect 7 0 8 0;
#X connect 8 0 0 0;
#X connect 9 0 1 0;
#X connect 10 0 9 0;
#X connect 11 0 22 0;
#X connect 12 0 13 0;
#X connect 13 0 14 0;
#X connect 15 0 16 0;
#X connect 17 0 15 0;
#X connect 18 0 19 0;
#X connect 19 0 20 0;
#X connect 22 0 3 0;
#X connect 22 1 23 0;
#X connect 23 0 21 0;
#X connect 24 0 25 0;
#X connect 26 0 27 0;
#X connect 28 0 21 0;
#X restore 697 130 pd store-names;
#X obj 695 162 namecanvas \$0-guts;
#X obj 474 402 dac~ 1;
#X obj 588 402 dac~ 2;
#X obj 44 66 r insig-1;
#X obj 272 66 r insig-2;
#X obj 360 66 r insig-3;
#X obj 588 66 r insig-4;
#X obj 170 372 r outsig-1;
#X obj 290 372 r outsig-2;
#X obj 480 372 r outsig-3;
#X obj 600 372 r outsig-4;
#X connect 0 0 2 0;
#X connect 0 1 16 0;
#X connect 0 2 17 0;
#X connect 2 0 9 0;
#X connect 2 1 7 0;
#X connect 3 0 6 0;
#X connect 3 1 25 0;
#X connect 3 2 26 0;
#X connect 4 0 0 0;
#X connect 5 0 3 0;
#X connect 6 0 10 0;
#X connect 6 1 8 0;
#X connect 12 0 0 0;
#X connect 13 0 0 1;
#X connect 14 0 3 0;
#X connect 15 0 3 1;
#X connect 27 0 12 0;
#X connect 28 0 13 0;
#X connect 29 0 14 0;
#X connect 30 0 15 0;
#X connect 31 0 16 0;
#X connect 32 0 17 0;
#X connect 33 0 25 0;
#X connect 34 0 26 0;
#X restore 80 226 pd \$0-guts;
#X obj 266 165 nbx 5 14 0 100 0 0 call-1-fifo call-1-fifo-set call-1-fifo
0 -8 0 10 -262144 -1 -1 20 256;
#X obj 266 195 nbx 5 14 0 100 0 0 call-2-fifo call-2-fifo-set call-2-fifo
0 -8 0 10 -262144 -1 -1 20 256;
#X obj 80 252 namecanvas \$0-quack3;
#X obj 285 42 bng 15 250 50 0 \$0-store \$0-store-set store 17 7 0
10 -262144 -1 -1;
#X coords 0 -1 1 1 250 200 1 80 20;
