#N canvas 72 202 432 453 12;
#X declare -path lib;
#X obj 27 77 quack-panel 1;
#X obj 175 13 declare -path lib;
#X obj 29 22 adc~ 1;
#X obj 320 29 adc~ 2;
#X obj 28 383 dac~ 1;
#X obj 172 381 dac~ 2;
#X obj 301 389 stdout;
#X connect 0 0 4 0;
#X connect 0 1 5 0;
#X connect 0 2 6 0;
#X connect 2 0 0 0;
#X connect 3 0 0 1;
