#N canvas 527 50 447 296 12;
#X declare -path lib;
#X obj 43 87 tgl 30 0 start start-set start 0 -8 0 12 -262130 -1 -1
1 1;
#X obj 79 87 tgl 30 0 onoff onoff-set onoff 0 -8 0 12 -204786 -1 -1
1 1;
#X obj 115 87 tgl 30 0 gui gui-set gui 0 -8 0 12 -204800 -1 -1 0 1
;
#X obj 187 87 bng 14 250 50 0 open open-set open 16 6 0 12 -261682
-1 -1;
#X obj 187 103 bng 14 250 50 0 write write-set write 16 6 0 12 -258113
-1 -1;
#X obj 151 87 bng 30 250 50 0 reload reload-set reload 0 -8 0 12 -232576
-1 -1;
#X obj 39 9 declare -path lib;
#N canvas 112 105 558 362 globals 0;
#X text 20 20 global symbols on main gui;
#X obj 228 201 r quack-start;
#X obj 228 227 t b b;
#X msg 335 248 \; start-set 1;
#X obj 228 253 del 2000;
#X msg 228 279 \; onoff-set 1 \;;
#X obj 229 53 r reload;
#X obj 21 174 r write;
#X obj 21 254 r open;
#X msg 21 279 \; setup click;
#X msg 21 199 \; setup write ./setup.txt \;;
#X obj 250 85 loadbang;
#N canvas 0 22 450 300 onoff 0;
#X obj 71 4 r onoff;
#X obj 92 63 r make;
#X obj 92 87 route float;
#X obj 73 135 f;
#X obj 92 110 + 1;
#X obj 72 159 sel 1;
#X obj 72 194 f;
#X msg 72 218 server bang \, onoff \$1;
#X obj 119 195 f;
#X obj 72 28 t b f f;
#X obj 114 159 b;
#X msg 84 248 all server bang \, all onoff \$1 \;;
#X obj 84 272 s quacker;
#X connect 0 0 9 0;
#X connect 1 0 2 0;
#X connect 2 0 4 0;
#X connect 3 0 5 0;
#X connect 4 0 3 1;
#X connect 5 0 6 0;
#X connect 5 1 10 0;
#X connect 6 0 7 0;
#X connect 7 0 12 0;
#X connect 8 0 11 0;
#X connect 9 0 3 0;
#X connect 9 1 6 1;
#X connect 9 2 8 1;
#X connect 10 0 8 0;
#X connect 11 0 12 0;
#X restore 18 82 pd onoff;
#N canvas 604 131 450 300 start 0;
#X obj 92 63 r make;
#X obj 92 87 route float;
#X obj 73 135 f;
#X obj 92 110 + 1;
#X obj 72 159 sel 1;
#X obj 72 194 f;
#X obj 119 195 f;
#X obj 114 159 b;
#X obj 84 272 s quacker;
#X obj 71 4 r start;
#X obj 72 28 t b f f f;
#X obj 219 93 sel;
#X msg 219 122 \; onoff-set set 0;
#X msg 121 244 all quack-start \$1;
#X msg 72 218 quack-start \$1;
#X connect 0 0 1 0;
#X connect 1 0 3 0;
#X connect 2 0 4 0;
#X connect 3 0 2 1;
#X connect 4 0 5 0;
#X connect 4 1 7 0;
#X connect 5 0 14 0;
#X connect 6 0 13 0;
#X connect 7 0 6 0;
#X connect 9 0 10 0;
#X connect 10 0 2 0;
#X connect 10 1 5 1;
#X connect 10 2 6 1;
#X connect 10 3 11 0;
#X connect 11 0 12 0;
#X connect 13 0 8 0;
#X connect 14 0 8 0;
#X restore 18 58 pd start;
#N canvas 0 22 450 300 gui 0;
#X obj 92 63 r make;
#X obj 92 87 route float;
#X obj 73 135 f;
#X obj 92 110 + 1;
#X obj 72 159 sel 1;
#X obj 72 194 f;
#X obj 119 195 f;
#X obj 72 28 t b f f;
#X obj 114 159 b;
#X obj 84 272 s quacker;
#X msg 142 227 all gui \$1;
#X msg 72 218 gui \$1;
#X obj 71 4 r gui;
#X connect 0 0 1 0;
#X connect 1 0 3 0;
#X connect 2 0 4 0;
#X connect 3 0 2 1;
#X connect 4 0 5 0;
#X connect 4 1 8 0;
#X connect 5 0 11 0;
#X connect 6 0 10 0;
#X connect 7 0 2 0;
#X connect 7 1 5 1;
#X connect 7 2 6 1;
#X connect 8 0 6 0;
#X connect 10 0 9 0;
#X connect 11 0 9 0;
#X connect 12 0 7 0;
#X restore 18 130 pd gui;
#N canvas 0 22 450 300 controls 0;
#X obj 87 48 r make;
#X obj 87 72 route float;
#X obj 75 119 f;
#X obj 87 95 + 1;
#X obj 157 122 t f b;
#X obj 157 146 until;
#X obj 157 170 f;
#X obj 186 171 + 1;
#X msg 186 196 \; quacker vis \$1 1;
#X msg 208 141 0;
#X obj 74 143 sel 1;
#X msg 73 246 \; pd-quacker vis 1;
#X obj 78 17 r controls;
#X connect 0 0 1 0;
#X connect 1 0 3 0;
#X connect 2 0 10 0;
#X connect 3 0 2 1;
#X connect 4 0 5 0;
#X connect 4 1 9 0;
#X connect 5 0 6 0;
#X connect 6 0 7 0;
#X connect 7 0 6 1;
#X connect 7 0 8 0;
#X connect 9 0 6 1;
#X connect 10 0 11 0;
#X connect 10 1 4 0;
#X connect 12 0 2 0;
#X restore 18 106 pd controls;
#X msg 229 117 \; pd dsp 1 \; start-set set 0 \; setup read ./setup.txt
\, send setup-ptr \;;
#X connect 1 0 2 0;
#X connect 2 0 4 0;
#X connect 2 1 3 0;
#X connect 4 0 5 0;
#X connect 6 0 16 0;
#X connect 7 0 10 0;
#X connect 8 0 9 0;
#X connect 11 0 16 0;
#X restore 41 132 pd globals;
#N canvas 566 72 449 299 setup 0;
#X obj 268 21 text define setup;
#X msg 23 106 line 0 \, auto;
#X obj 23 136 text sequence -s text t -g;
#X obj 23 52 r setup-ptr;
#X obj 23 78 t b p;
#X obj 90 229 r #;
#X text 30 192 comment-out for setup;
#X obj 245 195 text sequence -s text t;
#X obj 245 96 r setup-ptr;
#X obj 245 131 t b p;
#X msg 245 169 line 0 \, auto;
#N canvas 0 22 450 300 to-console 0;
#X obj 84 109 route #;
#X obj 84 43 list trim;
#X obj 130 140 list trim;
#X obj 130 178 route bang;
#X obj 197 230 print [quack];
#X text 103 86 ignore comments;
#X obj 84 9 inlet;
#X connect 0 1 2 0;
#X connect 1 0 0 0;
#X connect 2 0 3 0;
#X connect 3 1 4 0;
#X connect 6 0 1 0;
#X restore 245 239 pd to-console;
#X text 43 20 to globals;
#X text 254 70 to console;
#X connect 1 0 2 0;
#X connect 3 0 4 0;
#X connect 4 0 1 0;
#X connect 4 1 2 1;
#X connect 7 0 11 0;
#X connect 8 0 9 0;
#X connect 9 0 10 0;
#X connect 9 1 7 1;
#X connect 10 0 7 0;
#X restore 41 160 pd setup;
#N canvas 524 371 451 285 test 0;
#X msg 45 49 \; quacker 1 gui 1 \; quacker 1 quack-start 1 \; quacker
vis 1 1 \;;
#X msg 254 49 \; quacker 1 quack-start 0;
#X restore 41 216 pd test;
#N canvas 731 129 450 300 quacker 0;
#X obj 10 10 r quacker;
#X obj 10 40 quacker 1;
#X connect 0 0 1 0;
#X restore 41 244 pd quacker;
#N canvas 717 220 474 365 make 0;
#X obj 14 11 r make;
#X obj 79 63 max 1;
#X obj 79 89 - 1;
#X obj 79 115 s make-set;
#X obj 14 61 + 1;
#X obj 14 37 route float quacker;
#X msg 22 200 \; pd-quacker clear \, obj 10 10 r quacker \, obj 10
40 clone -s 1 quacker \$1 \, connect 0 0 1 0 \; make-set label make-\$1
;
#X obj 302 21 r make;
#X obj 302 65 change;
#X obj 302 42 route float;
#X msg 301 109 \; gui-set 0 \; onoff-set 0 \; start-set 0 \;;
#X obj 14 129 sel 1;
#X msg 14 271 \; pd-quacker clear \, obj 10 10 r quacker \, obj 10
40 quacker 1 \, connect 0 0 1 0 \; make-set label make-1;
#X obj 301 87 pipe 100;
#X connect 0 0 5 0;
#X connect 1 0 2 0;
#X connect 2 0 3 0;
#X connect 4 0 11 0;
#X connect 5 0 4 0;
#X connect 5 1 1 0;
#X connect 7 0 9 0;
#X connect 8 0 13 0;
#X connect 9 0 8 0;
#X connect 11 0 12 0;
#X connect 11 1 6 0;
#X connect 13 0 10 0;
#X restore 41 188 pd make;
#X obj 45 55 hradio 15 1 0 8 make make-set make-1 0 -8 0 10 -262144
-1 -1 0;
#X obj 171 55 bng 15 250 50 0 controls controls-set controls 17 7 0
10 -204800 -1 -1;
#X coords 0 -1 1 1 200 80 2 40 40;
