#N canvas 332 92 898 530 12;
#X obj 761 331 metro 22;
#X obj 636 20 loadbang;
#X msg 765 306 1;
#X obj 383 363 snapshot~;
#X obj 383 388 rmstodb;
#X obj 429 449 - 88;
#X obj 383 419 moses 1;
#X msg 383 449 -100;
#X obj 383 258 slop~ 0 0 0 0 1e+09;
#X obj 631 80 f \$1;
#X msg 631 106 \; p-\$1-vol-set 100 \; p-\$1-pan-set 63.5 \;;
#X obj 18 294 hip~ 3;
#X obj 148 294 hip~ 3;
#X obj 18 156 *~;
#X obj 18 265 *~;
#X obj 148 156 *~;
#X obj 148 265 *~;
#X obj 183 57 r p-\$1-vol;
#X obj 183 83 dbtorms;
#X obj 183 109 pack f 10;
#X obj 183 135 line~;
#X obj 183 219 pack f 10;
#X obj 183 245 line~;
#X obj 183 167 r p-\$1-pan;
#X obj 63 216 sig~ 1;
#X obj 63 244 -~;
#X obj 183 193 / 127;
#X obj 350 20 cnv 15 65 165 p-\$1-cnv p-\$1-cnv-set \$1:\$2_\$3-->\$4_\$5
2 8 0 10 -233017 -1 0;
#X obj 353 42 vsl 15 119 0 127 0 0 p-\$1-vol p-\$1-vol-set empty 0
-9 0 10 -262144 -1 -1 9291 1;
#X obj 354 167 hsl 58 15 0 127 0 0 p-\$1-pan p-\$1-pan-set empty -2
-8 0 10 -262144 -1 -1 2850 1;
#X obj 396 42 vu 15 120 p-\$1-vu-2-set empty -1 -8 0 10 -66577 -1 0
0;
#X obj 374 42 vu 15 120 p-\$1-vu-1-set empty -1 -8 0 10 -66577 -1 0
0;
#X obj 580 361 snapshot~;
#X obj 580 386 rmstodb;
#X obj 626 447 - 88;
#X obj 580 417 moses 1;
#X msg 580 447 -100;
#X obj 580 256 slop~ 0 0 0 0 1e+09;
#X msg 651 213 2;
#X obj 413 483 s p-\$1-vu-1;
#X obj 582 482 s p-\$1-vu-2;
#X obj 18 342 throw~ dac-\$4;
#X obj 148 342 throw~ dac-\$5;
#X obj 18 18 catch~ q-dac-\$2;
#X obj 148 18 catch~ q-dac-\$3;
#X connect 0 0 3 0;
#X connect 0 0 32 0;
#X connect 1 0 2 0;
#X connect 1 0 38 0;
#X connect 1 0 9 0;
#X connect 2 0 0 0;
#X connect 3 0 4 0;
#X connect 4 0 6 0;
#X connect 5 0 39 0;
#X connect 6 0 7 0;
#X connect 6 1 5 0;
#X connect 7 0 39 0;
#X connect 8 0 3 0;
#X connect 9 0 10 0;
#X connect 11 0 8 0;
#X connect 11 0 41 0;
#X connect 12 0 37 0;
#X connect 12 0 42 0;
#X connect 13 0 14 0;
#X connect 14 0 11 0;
#X connect 15 0 16 0;
#X connect 16 0 12 0;
#X connect 17 0 18 0;
#X connect 18 0 19 0;
#X connect 19 0 20 0;
#X connect 20 0 13 1;
#X connect 20 0 15 1;
#X connect 21 0 22 0;
#X connect 22 0 16 1;
#X connect 22 0 25 1;
#X connect 23 0 26 0;
#X connect 24 0 25 0;
#X connect 25 0 14 1;
#X connect 26 0 21 0;
#X connect 32 0 33 0;
#X connect 33 0 35 0;
#X connect 34 0 40 0;
#X connect 35 0 36 0;
#X connect 35 1 34 0;
#X connect 36 0 40 0;
#X connect 37 0 32 0;
#X connect 38 0 8 3;
#X connect 38 0 37 3;
#X connect 43 0 13 0;
#X connect 44 0 15 0;
#X coords 0 -1 1 1 65 165 2 350 20;
