#N canvas 0 22 450 300 12;
#X obj 63 30 inlet;
#X obj 63 56 route \$1;
#X obj 116 179 outlet;
#X obj 63 89 \$3;
#X obj 63 122 s \$1-\$2-set;
#X connect 0 0 1 0;
#X connect 1 0 3 0;
#X connect 1 1 2 0;
#X connect 3 0 4 0;
