#N canvas 651 145 1408 841 12;
#X obj 52 120 netreceive -u -f;
#X obj 690 71 text define connections;
#X obj 52 151 route call;
#X obj 52 202 list append;
#X obj 52 176 list;
#X obj 70 268 text search connections 0;
#X obj 70 294 sel -1;
#X obj 1146 54 loadbang;
#X obj 1146 108 metro 1000;
#X obj 1146 138 f;
#X obj 1147 87 tgl 15 0 empty empty empty 17 7 0 10 -262144 -1 -1 1
1;
#X obj 1146 163 + 1;
#X obj 1146 188 mod 1e+06;
#X msg 1089 85 30;
#X obj 1089 110 until;
#X obj 690 102 text define this-msg;
#X obj 184 181 text set this-msg;
#X obj 171 235 print got-call;
#X obj 67 353 t b b;
#X obj 67 472 text set connections 1e+09;
#X obj 67 411 text get this-msg;
#X msg 68 385 0;
#X obj 175 151 list append;
#X obj 260 152 r secs;
#X floatatom 1174 217 5 0 0 0 - - -;
#X obj 1151 259 s secs;
#X msg 690 45 clear;
#N canvas 530 194 755 576 replace-one-line 0;
#X obj 88 129 r replace-a;
#X msg 88 87 \; replace-a bang;
#X msg 88 154 0 0;
#X obj 88 178 text get this-msg;
#X obj 88 207 text search connections 0;
#X obj 88 232 sel -1;
#X obj 66 263 print bug:a;
#X obj 218 313 text get this-msg;
#X msg 222 285 0;
#X obj 58 344 list append;
#X obj 60 311 text get connections;
#X obj 174 259 t f f b;
#X obj 58 408 text set connections;
#X msg 60 373 list \$1 \$9 \$10 \$11 \$5 \$6 \$7;
#X msg 395 147 0 0;
#X obj 395 171 text get this-msg;
#X obj 395 200 text search connections 0;
#X obj 395 225 sel -1;
#X obj 373 256 print bug:a;
#X obj 525 306 text get this-msg;
#X msg 529 278 0;
#X obj 365 337 list append;
#X obj 367 304 text get connections;
#X obj 481 252 t f f b;
#X obj 365 401 text set connections;
#X obj 395 122 r replace-b;
#X msg 397 80 \; replace-b bang;
#X msg 367 365 list \$1 \$2 \$3 \$4 \$9 \$10 \$11;
#X obj 220 342 print replace-a;
#X obj 527 335 print replace-b;
#X connect 0 0 2 0;
#X connect 2 0 3 0;
#X connect 3 0 4 0;
#X connect 4 0 5 0;
#X connect 5 0 6 0;
#X connect 5 1 11 0;
#X connect 7 0 9 1;
#X connect 7 0 28 0;
#X connect 8 0 7 0;
#X connect 9 0 13 0;
#X connect 10 0 9 0;
#X connect 11 0 10 0;
#X connect 11 1 12 1;
#X connect 11 2 8 0;
#X connect 13 0 12 0;
#X connect 14 0 15 0;
#X connect 15 0 16 0;
#X connect 16 0 17 0;
#X connect 17 0 18 0;
#X connect 17 1 23 0;
#X connect 19 0 21 1;
#X connect 19 0 29 0;
#X connect 20 0 19 0;
#X connect 21 0 27 0;
#X connect 22 0 21 0;
#X connect 23 0 22 0;
#X connect 23 1 24 1;
#X connect 23 2 20 0;
#X connect 25 0 14 0;
#X connect 27 0 24 0;
#X restore 878 75 pd replace-one-line;
#X obj 50 505 print add-new-line;
#N canvas 766 171 755 576 prune-connections 0;
#X msg 127 43 \; prune-connections bang;
#X obj 343 60 r prune-connections;
#X obj 587 282 r secs;
#X msg 404 282 \$4 \$7;
#X obj 346 394 sel 1;
#X obj 344 456 text delete connections;
#X obj 406 315 expr ($f1 < 0 || (($f3-$f1+1000000)%1000000) > 30) &&
($f2 < 0 || (($f3-$f2+1000000)%1000000) > 30), f 33;
#X obj 344 113 text size connections;
#X obj 343 85 t b b;
#X obj 344 139 until;
#X obj 354 217 text get connections;
#X obj 344 164 f;
#X obj 379 162 + 1;
#X obj 341 189 t f f;
#X msg 416 86 0;
#X obj 345 426 f;
#X connect 1 0 8 0;
#X connect 2 0 6 2;
#X connect 3 0 6 0;
#X connect 4 0 15 0;
#X connect 6 0 4 0;
#X connect 7 0 9 0;
#X connect 8 0 7 0;
#X connect 8 1 14 0;
#X connect 9 0 11 0;
#X connect 10 0 3 0;
#X connect 11 0 12 0;
#X connect 11 0 13 0;
#X connect 12 0 11 1;
#X connect 13 0 10 0;
#X connect 13 1 15 1;
#X connect 14 0 11 1;
#X connect 15 0 5 0;
#X restore 880 107 pd prune-connections;
#X obj 543 245 text get this-msg;
#X obj 597 190 v matched-line;
#X obj 536 384 sel -;
#X obj 545 191 t b f;
#X obj 715 247 text get connections;
#X obj 778 393 sel -;
#X msg 583 381 symbol \$2;
#X msg 827 394 symbol \$5;
#X obj 533 565 text get this-msg;
#X obj 781 561 text get this-msg;
#X msg 543 218 0 1;
#X msg 533 539 0;
#X msg 781 535 0;
#X msg 534 590 list \$2 \$3 \$4;
#X obj 828 650 v matched-line;
#X obj 798 679 text set connections;
#X msg 780 585 list \$2 \$3 \$4;
#X obj 532 441 text get this-msg;
#X obj 799 448 text get this-msg;
#X msg 535 411 0 2;
#X msg 778 418 0 2;
#X obj 551 492 sel;
#X obj 822 481 sel;
#X obj 928 448 route float;
#X obj 661 441 route float;
#X obj 522 163 t b f b;
#X obj 272 598 spigot;
#X obj 319 650 text delete connections;
#X obj 272 623 v matched-line;
#X msg 661 381 \$3;
#X msg 911 394 \$6;
#X obj 50 228 t b s l b;
#X msg 51 94 listen \$1;
#X floatatom 58 67 5 0 0 0 - - -;
#X msg 115 43 0;
#X obj 797 786 s reply;
#X obj 1100 377 r reply;
#X obj 296 317 t b b;
#X obj 362 354 v matched-line;
#X obj 361 379 text get connections;
#X obj 391 505 sel -1;
#X obj 318 510 sel -1;
#X msg 317 481 \$4;
#X msg 390 476 \$7;
#X obj 296 290 spigot;
#X obj 1093 633 netsend -u;
#X obj 1226 216 mod 30;
#X obj 1226 241 sel 0;
#X obj 1226 294 s prune-connections;
#X obj 1226 266 spigot;
#X obj 1304 226 loadbang;
#X obj 1306 257 tgl 15 0 empty empty empty 17 7 0 10 -262144 -1 -1
1 1;
#X obj 171 211 spigot;
#X obj 673 467 spigot;
#X obj 673 493 print a;
#X obj 231 210 tgl 15 0 empty empty empty 17 7 0 10 -262144 -1 -1 1
1;
#X obj 25 193 bng 15 250 50 0 empty empty empty 17 7 0 10 -262144 -1
-1;
#X obj 1096 471 unpack s 0 0 s 0 0;
#X obj 1126 439 print reply-before;
#X obj 1179 501 addrmunger;
#X obj 1123 411 spigot;
#X obj 1190 401 tgl 15 0 empty empty empty 17 7 0 10 -262144 -1 -1
0 1;
#X obj 1096 500 addrmunger;
#X obj 1096 532 pack s 0 0 s 0 0;
#X obj 725 465 tgl 15 0 empty empty empty 17 7 0 10 -262144 -1 -1 0
1;
#X msg 67 436 list \$1 \$2 \$3 \$4 - 0 -1;
#X obj 1255 525 spigot;
#X obj 1315 527 tgl 15 0 empty empty empty 17 7 0 10 -262144 -1 -1
1 1;
#X obj 1258 553 print reply-after;
#X obj 1200 633 spigot;
#X obj 1262 634 tgl 15 0 empty empty empty 17 7 0 10 -262144 -1 -1
0 1;
#X obj 34 17 loadbang;
#X msg 35 40 3840;
#X msg 1091 583 disconnect \, connect \$1 \$2 3840 \, send peer-addr
\$4 \$5 \$2 \, disconnect, f 35;
#X obj 1203 661 print to-netsend;
#N canvas 1285 148 557 245 tests 0;
#X obj 90 158 netsend -u;
#X msg 89 45 disconnect \, connect localhost 3840 4478 \, send call
foo;
#X msg 102 74 disconnect \, connect localhost 3840 4479 \, send call
bar;
#X msg 110 99 disconnect \, connect localhost 3840 4480 \, send call
bar;
#X msg 123 121 disconnect \, connect localhost 3840 4481 \, send call
bar;
#X connect 1 0 0 0;
#X connect 2 0 0 0;
#X connect 3 0 0 0;
#X connect 4 0 0 0;
#X restore 876 43 pd tests;
#X msg 595 142 \; not-replied 1;
#X msg 844 609 \; not-replied 0;
#X obj 349 292 r not-replied;
#X obj 319 597 r not-replied;
#X obj 272 648 t b f;
#X obj 322 696 print delete-line;
#X msg 778 758 list \$5 \$6 \$7 \$2 \$3 \$4;
#X obj 778 787 bng 15 250 50 0 empty empty empty 17 7 0 10 -262144
-1 -1;
#X obj 309 214 loadbang;
#X obj 540 278 t s s, f 16;
#X obj 536 339 spigot;
#X obj 554 311 r not-replied;
#X obj 313 450 spigot;
#X obj 401 446 r not-replied;
#X obj 361 404 t l l;
#X obj 779 622 t b l b;
#X obj 777 706 v matched-line;
#X obj 777 732 text get connections;
#X obj 42 619 t l b;
#X obj 63 652 v matched-line;
#X obj 54 700 text set connections;
#X msg 170 654 1;
#X obj 21 727 text get connections;
#X obj 21 777 s reply;
#X msg 21 752 list \$2 \$3 \$4 \$5 \$6 \$7;
#X obj 78 778 bng 15 250 50 0 empty empty empty 17 7 0 10 -262144 -1
-1;
#X msg 147 607 \; not-replied 0;
#X obj 576 662 v matched-line;
#X obj 546 691 text set connections;
#X obj 545 798 s reply;
#X msg 654 622 \; not-replied 0;
#X obj 526 799 bng 15 250 50 0 empty empty empty 17 7 0 10 -262144
-1 -1;
#X obj 527 634 t b l b;
#X obj 525 718 v matched-line;
#X obj 525 744 text get connections;
#X msg 526 770 list \$2 \$3 \$4 \$5 \$6 \$7;
#X msg 936 651 4;
#X msg 684 663 1;
#X obj 513 407 bng 15 250 50 0 empty empty empty 17 7 0 10 -262144
-1 -1;
#X obj 755 394 bng 15 250 50 0 empty empty empty 17 7 0 10 -262144
-1 -1;
#X obj 934 560 text get this-msg;
#X msg 934 534 0;
#X msg 933 584 list \$2 \$3 \$4 - 0 -1;
#X obj 1008 721 v matched-line;
#X obj 978 750 text set connections;
#X msg 1046 679 \; not-replied 0;
#X obj 972 678 t b l b;
#X msg 1116 722 1;
#X obj 863 486 bng 15 250 50 0 empty empty empty 17 7 0 10 -262144
-1 -1;
#X obj 596 491 bng 15 250 50 0 empty empty empty 17 7 0 10 -262144
-1 -1;
#X connect 0 0 2 0;
#X connect 0 1 3 1;
#X connect 2 0 4 0;
#X connect 3 0 61 0;
#X connect 4 0 3 0;
#X connect 4 0 86 0;
#X connect 5 0 6 0;
#X connect 6 0 18 0;
#X connect 6 1 55 0;
#X connect 7 0 10 0;
#X connect 8 0 9 0;
#X connect 9 0 11 0;
#X connect 10 0 8 0;
#X connect 11 0 12 0;
#X connect 12 0 9 1;
#X connect 12 0 24 0;
#X connect 12 0 25 0;
#X connect 12 0 76 0;
#X connect 13 0 14 0;
#X connect 14 0 9 0;
#X connect 18 1 21 0;
#X connect 20 0 95 0;
#X connect 21 0 20 0;
#X connect 22 0 16 0;
#X connect 22 0 82 0;
#X connect 23 0 22 1;
#X connect 26 0 1 0;
#X connect 30 0 115 0;
#X connect 32 0 49 0;
#X connect 32 0 144 0;
#X connect 33 0 40 0;
#X connect 33 1 31 0;
#X connect 33 1 34 0;
#X connect 34 0 36 0;
#X connect 34 0 37 0;
#X connect 34 0 59 0;
#X connect 34 0 60 0;
#X connect 35 0 50 0;
#X connect 35 0 145 0;
#X connect 36 0 32 1;
#X connect 37 0 35 1;
#X connect 38 0 43 0;
#X connect 39 0 46 0;
#X connect 40 0 30 0;
#X connect 41 0 38 0;
#X connect 42 0 39 0;
#X connect 43 0 138 0;
#X connect 44 0 45 1;
#X connect 46 0 121 0;
#X connect 47 0 51 0;
#X connect 47 0 83 0;
#X connect 48 0 52 0;
#X connect 49 0 47 0;
#X connect 50 0 48 0;
#X connect 51 0 41 0;
#X connect 51 1 147 0;
#X connect 51 1 155 0;
#X connect 52 0 42 0;
#X connect 52 1 147 0;
#X connect 52 1 154 0;
#X connect 53 0 52 1;
#X connect 54 0 51 1;
#X connect 55 0 74 0;
#X connect 55 1 33 0;
#X connect 55 2 106 0;
#X connect 56 0 58 0;
#X connect 58 0 110 0;
#X connect 59 0 54 0;
#X connect 59 0 83 0;
#X connect 60 0 53 0;
#X connect 61 0 102 0;
#X connect 61 1 5 0;
#X connect 61 2 22 0;
#X connect 61 3 64 0;
#X connect 62 0 0 0;
#X connect 63 0 62 0;
#X connect 64 0 63 0;
#X connect 66 0 90 0;
#X connect 66 0 87 0;
#X connect 67 0 56 0;
#X connect 67 1 68 0;
#X connect 68 0 69 0;
#X connect 69 0 120 0;
#X connect 70 0 42 0;
#X connect 71 0 41 0;
#X connect 72 0 71 0;
#X connect 73 0 70 0;
#X connect 74 0 67 0;
#X connect 76 0 77 0;
#X connect 77 0 79 0;
#X connect 79 0 78 0;
#X connect 80 0 81 0;
#X connect 81 0 79 1;
#X connect 82 0 17 0;
#X connect 83 0 84 0;
#X connect 85 0 82 1;
#X connect 87 0 92 0;
#X connect 87 1 93 1;
#X connect 87 2 93 2;
#X connect 87 3 89 0;
#X connect 87 4 93 4;
#X connect 87 5 93 5;
#X connect 89 0 93 3;
#X connect 90 0 88 0;
#X connect 91 0 90 1;
#X connect 92 0 93 0;
#X connect 93 0 103 0;
#X connect 93 0 96 0;
#X connect 94 0 83 1;
#X connect 95 0 19 0;
#X connect 95 0 28 0;
#X connect 96 0 98 0;
#X connect 97 0 96 1;
#X connect 99 0 104 0;
#X connect 100 0 99 1;
#X connect 101 0 102 0;
#X connect 102 0 63 0;
#X connect 103 0 75 0;
#X connect 103 0 99 0;
#X connect 108 0 74 1;
#X connect 109 0 56 1;
#X connect 110 0 18 0;
#X connect 110 1 57 0;
#X connect 110 1 111 0;
#X connect 112 0 65 0;
#X connect 112 0 113 0;
#X connect 114 0 85 0;
#X connect 115 0 116 0;
#X connect 115 1 35 0;
#X connect 116 0 32 0;
#X connect 117 0 116 1;
#X connect 118 0 72 0;
#X connect 119 0 118 1;
#X connect 120 0 118 0;
#X connect 120 1 73 0;
#X connect 121 0 122 0;
#X connect 121 1 45 0;
#X connect 121 2 107 0;
#X connect 121 2 142 0;
#X connect 121 2 44 0;
#X connect 122 0 123 0;
#X connect 123 0 112 0;
#X connect 124 0 126 0;
#X connect 124 1 125 0;
#X connect 124 1 127 0;
#X connect 125 0 126 1;
#X connect 125 0 128 0;
#X connect 127 0 126 2;
#X connect 128 0 130 0;
#X connect 130 0 129 0;
#X connect 130 0 131 0;
#X connect 133 0 134 1;
#X connect 138 0 139 0;
#X connect 138 1 134 0;
#X connect 138 2 136 0;
#X connect 138 2 143 0;
#X connect 138 2 133 0;
#X connect 139 0 140 0;
#X connect 140 0 141 0;
#X connect 141 0 135 0;
#X connect 141 0 137 0;
#X connect 142 0 45 2;
#X connect 143 0 134 2;
#X connect 146 0 148 0;
#X connect 147 0 146 0;
#X connect 148 0 152 0;
#X connect 149 0 150 1;
#X connect 152 0 122 0;
#X connect 152 1 150 0;
#X connect 152 2 151 0;
#X connect 152 2 153 0;
#X connect 152 2 149 0;
#X connect 153 0 150 2;
