#N canvas 410 165 969 422 12;
#X obj 82 239 list;
#X msg 83 314 packet 81;
#X obj 82 264 list prepend set;
#X obj 82 289 list trim;
#X obj 66 213 bng 15 250 50 0 empty empty empty 17 7 0 10 -262144 -1
-1;
#X obj 42 12 tgl 15 0 empty empty empty 17 7 0 10 -262144 -1 -1 0 1
;
#X obj 42 32 metro 500;
#X obj 42 57 f;
#X obj 42 82 + 1;
#X obj 42 107 mod 100;
#X obj 113 111 bng 15 250 50 0 empty empty empty 17 7 0 10 -262144
-1 -1;
#X obj 336 59 tgl 15 0 empty empty empty 17 7 0 10 -262144 -1 -1 0
1;
#X text 331 38 start/stop;
#X obj 350 248 route running;
#X obj 56 265 bng 15 250 50 0 empty empty empty 17 7 0 10 -262144 -1
-1;
#X obj 337 84 sel 1 0;
#X msg 323 114 start poodle;
#X msg 421 114 stop;
#X obj 365 192 spigot;
#X obj 428 194 tgl 15 0 empty empty empty 17 7 0 10 -262144 -1 -1 0
1;
#X obj 366 217 print status;
#X msg 44 134 send packet \$1;
#X obj 85 175 conniption-client -u 192.168.1.92 4300;
#X obj 531 258 list;
#X msg 532 333 packet 81;
#X obj 531 283 list prepend set;
#X obj 531 308 list trim;
#X obj 515 232 bng 15 250 50 0 empty empty empty 17 7 0 10 -262144
-1 -1;
#X obj 491 31 tgl 15 0 empty empty empty 17 7 0 10 -262144 -1 -1 0
1;
#X obj 491 51 metro 500;
#X obj 491 76 f;
#X obj 491 101 + 1;
#X obj 491 126 mod 100;
#X obj 562 130 bng 15 250 50 0 empty empty empty 17 7 0 10 -262144
-1 -1;
#X obj 785 78 tgl 15 0 empty empty empty 17 7 0 10 -262144 -1 -1 0
1;
#X text 780 57 start/stop;
#X obj 799 267 route running;
#X obj 505 284 bng 15 250 50 0 empty empty empty 17 7 0 10 -262144
-1 -1;
#X obj 786 103 sel 1 0;
#X msg 870 133 stop;
#X obj 814 211 spigot;
#X obj 877 213 tgl 15 0 empty empty empty 17 7 0 10 -262144 -1 -1 0
1;
#X obj 815 236 print status;
#X obj 534 194 conniption-client -b 192.168.1.92 4300;
#X msg 493 153 send 1 2 3 \$1;
#X msg 772 133 start beagle;
#X connect 0 0 2 0;
#X connect 0 0 14 0;
#X connect 2 0 3 0;
#X connect 3 0 1 0;
#X connect 4 0 0 0;
#X connect 5 0 6 0;
#X connect 6 0 7 0;
#X connect 7 0 8 0;
#X connect 8 0 9 0;
#X connect 9 0 21 0;
#X connect 9 0 10 0;
#X connect 9 0 7 1;
#X connect 11 0 15 0;
#X connect 13 0 5 0;
#X connect 15 0 16 0;
#X connect 15 1 17 0;
#X connect 16 0 22 1;
#X connect 17 0 22 1;
#X connect 18 0 20 0;
#X connect 19 0 18 1;
#X connect 21 0 22 0;
#X connect 22 0 0 0;
#X connect 22 1 13 0;
#X connect 22 1 18 0;
#X connect 23 0 25 0;
#X connect 23 0 37 0;
#X connect 25 0 26 0;
#X connect 26 0 24 0;
#X connect 27 0 23 0;
#X connect 28 0 29 0;
#X connect 29 0 30 0;
#X connect 30 0 31 0;
#X connect 31 0 32 0;
#X connect 32 0 44 0;
#X connect 32 0 33 0;
#X connect 32 0 30 1;
#X connect 34 0 38 0;
#X connect 36 0 28 0;
#X connect 38 0 45 0;
#X connect 38 1 39 0;
#X connect 39 0 43 1;
#X connect 40 0 42 0;
#X connect 41 0 40 1;
#X connect 43 0 23 0;
#X connect 43 1 36 0;
#X connect 43 1 40 0;
#X connect 44 0 43 0;
#X connect 45 0 43 1;
