#N canvas 380 67 752 578 12;
#X obj 68 232 list trim;
#X obj 16 68 r server;
#X msg 15 95 server \$1;
#X msg 94 99 call-name \$1;
#X msg 194 116 onoff \$1;
#X msg 201 57 fifo \$1;
#X text 35 41 the \$1 call;
#X obj 93 73 r call-name-\$1;
#X obj 201 31 r call-\$1-fifo;
#X obj 202 85 r call-\$1-onoff;
#X obj 68 206 list prepend quack-panel-1;
#X obj 305 523 s quack\$1;
#X obj 361 89 r quack-start-\$1;
#X msg 438 204 pd~ stop;
#X obj 360 133 sel 1 0;
#X obj 370 185 r gui;
#X obj 359 212 f;
#X obj 359 236 sel 0 1;
#X msg 359 261 pd~ start -nogui quack2~.pd;
#X msg 385 385 pd~ start quack2~.pd;
#X obj 333 28 r call-\$1-dsp;
#X msg 333 54 pd dsp \$1;
#X obj 420 516 print quack\$1;
#X connect 0 0 11 0;
#X connect 0 0 22 0;
#X connect 1 0 2 0;
#X connect 2 0 10 0;
#X connect 3 0 10 0;
#X connect 4 0 10 0;
#X connect 5 0 10 0;
#X connect 7 0 3 0;
#X connect 8 0 5 0;
#X connect 9 0 4 0;
#X connect 10 0 0 0;
#X connect 12 0 14 0;
#X connect 13 0 11 0;
#X connect 13 0 22 0;
#X connect 14 0 16 0;
#X connect 14 1 13 0;
#X connect 15 0 16 1;
#X connect 16 0 17 0;
#X connect 17 0 18 0;
#X connect 17 1 19 0;
#X connect 18 0 11 0;
#X connect 18 0 22 0;
#X connect 19 0 11 0;
#X connect 19 0 22 0;
#X connect 20 0 21 0;
#X connect 21 0 10 0;
