#N canvas 279 208 470 498 12;
#X obj 27 107 quack-panel 1;
#X obj 27 14 adc~ 1;
#X obj 320 14 adc~ 2;
#X obj 27 473 dac~ 1;
#X obj 173 471 dac~ 2;
#X obj 340 458 stdout;
#X obj 340 424 loadbang;
#X obj 37 412 env~;
#X floatatom 37 438 5 0 0 0 - - -;
#X obj 187 412 env~;
#X floatatom 187 438 5 0 0 0 - - -;
#X connect 0 0 3 0;
#X connect 0 0 7 0;
#X connect 0 1 4 0;
#X connect 0 1 9 0;
#X connect 0 2 5 0;
#X connect 1 0 0 0;
#X connect 2 0 0 1;
#X connect 6 0 5 0;
#X connect 7 0 8 0;
#X connect 9 0 10 0;
