#N canvas 0 22 459 321 12;
#X obj 54 155 route float;
#X text 117 41 <-- set inputs -->;
#X obj 54 100 pd~ -ninsig 2 -noutsig 2 -fifo 5;
#X obj 64 71 r quack\$1;
#X obj 128 182 print quack\$1;
#X obj 54 219 s status-\$1-set;
#X obj 54 41 adc~ \$2;
#X obj 275 41 adc~ \$3;
#X obj 164 248 dac~ \$4;
#X obj 278 248 dac~ \$5;
#X obj 54 11 r insig-\$1-1;
#X obj 275 11 r insig-\$1-2;
#X obj 176 218 r outsig-\$1-1;
#X obj 296 218 r outsig-\$1-2;
#X obj 299 101 quack-dispatch \$1;
#X connect 0 0 5 0;
#X connect 0 1 4 0;
#X connect 2 0 0 0;
#X connect 2 1 8 0;
#X connect 2 2 9 0;
#X connect 3 0 2 0;
#X connect 6 0 2 0;
#X connect 7 0 2 1;
#X connect 10 0 6 0;
#X connect 11 0 7 0;
#X connect 12 0 8 0;
#X connect 13 0 9 0;
