#N canvas 68 51 1114 645 12;
#X declare -path quacktrip~ -path lib -path conniption;
#X obj 339 233 quacktrip~;
#X obj 325 537 *~;
#X obj 396 538 *~;
#X obj 439 436 line~;
#X obj 325 577 rpole~;
#X obj 397 577 rpole~;
#X obj 439 353 change;
#X obj 404 323 loadbang;
#X obj 404 348 1;
#X obj 439 378 sel 1 0;
#X obj 489 407 0;
#X obj 439 461 *~;
#X obj 439 486 *~;
#X obj 324 608 outlet~;
#X obj 396 609 outlet~;
#X obj 336 195 inlet~;
#X obj 389 196 inlet~;
#X obj 439 407 1 20;
#X obj 439 514 *~ -0.9995;
#X obj 439 539 +~ 0.9995;
#X obj 38 137 tgl 15 0 \$0-onoff \$0-onoff-set empty 17 7 0 10 -262144
-1 -1 0 1;
#X text 57 135 ON/OFF;
#X obj 97 254 tgl 15 0 \$0-connected \$0-connected-set empty 17 7 0
10 -262144 -1 -1 0 1;
#X text 23 251 connected;
#X text 139 252 packets in;
#X floatatom 218 253 7 0 0 0 - #0-packets-in-set #0-packets-in;
#X floatatom 218 274 5 0 0 0 - #0-dropouts-set #0-dropouts;
#X text 151 273 dropouts;
#X obj 772 77 setctl \$0-onoff;
#X floatatom 82 274 5 0 0 0 - #0-nfill-set #0-nfill;
#X text 43 273 fill;
#X text 31 184 server;
#X symbolatom 83 184 30 0 0 0 - #0-server-set #0-server;
#X symbolatom 96 159 30 0 0 0 - #0-call-name-set #0-call-name;
#X text 25 159 call name;
#X text 24 228 calling;
#X obj 83 232 bng 15 250 50 0 empty \$0-calling empty 17 7 0 10 -262144
-1 -1;
#X floatatom 232 136 5 3 100 0 - #0-fifo-size-set #0-fifo-size;
#X text 160 135 FIFO size;
#X obj 773 126 setctl \$0-server;
#X obj 52 357 loadbang;
#X obj 52 382 f \$0;
#X obj 28 369 bng 15 250 50 0 empty empty empty 17 7 0 10 -262144 -1
-1;
#X obj 772 150 setctl \$0-call-name;
#X obj 772 101 setctl \$0-fifo-size;
#X obj 488 45 r \$0-onoff;
#X obj 488 77 sel 1 0;
#X obj 489 133 pack 0 s s;
#X obj 522 103 r \$0-server;
#X obj 609 102 r \$0-call-name;
#X obj 682 294 b;
#X obj 680 357 f;
#X obj 712 360 + 1;
#X obj 258 276 bng 15 250 50 0 empty empty empty 17 7 0 10 -262144
-1 -1;
#X text 275 273 reset;
#X msg 645 302 0;
#X obj 604 342 b;
#X obj 604 367 f;
#X obj 632 368 + 1;
#X obj 601 403 speedlim 100;
#X obj 661 29 declare -path quacktrip~ -path lib -path conniption;
#X obj 769 268 s \$0-calling;
#X msg 603 159 off;
#X obj 411 157 print foo;
#X msg 489 158 peer \$2 3840 \$3;
#X obj 594 433 s \$0-packets-in-set;
#X obj 701 393 s \$0-dropouts-set;
#X obj 472 325 s \$0-nfill-set;
#X text 55 16 DOLIST;
#X text 75 35 settable channels;
#X text 76 54 settable double-send;
#X obj 938 284 s \$0-connected-set;
#X obj 949 258 print quack-panel-\$1;
#X msg 14 405 \; \$1-onoff 0 \; \$1-fifo-size 20 \; \$1-server symbol
foo.ucsd.edu \; \$1-call-name symbol fred;
#X obj 926 309 sel 0;
#X obj 926 334 0;
#X obj 926 359 s \$0-fill-set;
#X text 76 114 ----- controls ------;
#X text 77 209 ----- readouts ------;
#X obj 273 232 bng 15 250 50 0 empty \$0-server-answered empty 17 7
0 10 -262144 -1 -1;
#X text 162 230 server answered;
#X obj 776 315 s \$0-server-answered;
#X obj 649 135 r \$0-fifo-size;
#X msg 649 160 nbuf \$1;
#X obj 444 301 unpack 0 0 0;
#X obj 627 505 s \$0-remote-sr-set;
#X obj 580 502 t b f;
#X obj 581 530 samplerate~;
#X obj 580 559 s \$0-local-sr-set;
#X floatatom 164 324 5 0 0 0 - #0-remote-sr-set #0-remote-sr;
#X floatatom 163 303 5 0 0 0 - #0-local-sr-set #0-local-sr;
#X text 112 323 remote;
#X text 28 302 sample rates: local;
#X obj 492 231 route got-packet drop late miss request-call no-peer-yet
running, f 68;
#X obj 580 308 route 0;
#N canvas 538 70 416 329 quack-panel-\$1-messages 0;
#X obj 26 24 r quack-panel-\$1;
#X obj 24 80 symbol;
#X obj 24 105 s \$0-server;
#X obj 62 132 symbol;
#X obj 51 157 s \$0-call-name;
#X obj 81 190 s \$0-onoff-set;
#X obj 24 55 route server call-name onoff fifo;
#X obj 98 235 s \$0-fifo-set;
#X connect 0 0 6 0;
#X connect 1 0 2 0;
#X connect 3 0 4 0;
#X connect 6 0 1 0;
#X connect 6 1 3 0;
#X connect 6 2 5 0;
#X connect 6 3 7 0;
#X restore 22 507 pd quack-panel-\$1-messages;
#X obj 902 478 r \$0-connected;
#X obj 902 515 outlet;
#X connect 0 0 1 0;
#X connect 0 1 2 0;
#X connect 0 2 93 0;
#X connect 1 0 4 0;
#X connect 2 0 5 0;
#X connect 3 0 11 0;
#X connect 3 0 11 1;
#X connect 4 0 13 0;
#X connect 5 0 14 0;
#X connect 6 0 9 0;
#X connect 7 0 8 0;
#X connect 8 0 6 0;
#X connect 9 0 17 0;
#X connect 9 1 10 0;
#X connect 10 0 3 0;
#X connect 11 0 12 0;
#X connect 11 0 12 1;
#X connect 12 0 1 1;
#X connect 12 0 2 1;
#X connect 12 0 18 0;
#X connect 15 0 0 0;
#X connect 16 0 0 1;
#X connect 17 0 3 0;
#X connect 18 0 19 0;
#X connect 19 0 5 1;
#X connect 19 0 4 1;
#X connect 40 0 41 0;
#X connect 41 0 73 0;
#X connect 42 0 41 0;
#X connect 45 0 46 0;
#X connect 46 0 47 0;
#X connect 46 1 62 0;
#X connect 47 0 64 0;
#X connect 48 0 47 1;
#X connect 49 0 47 2;
#X connect 50 0 51 0;
#X connect 51 0 52 0;
#X connect 51 0 66 0;
#X connect 52 0 51 1;
#X connect 53 0 55 0;
#X connect 55 0 57 0;
#X connect 55 0 51 0;
#X connect 56 0 57 0;
#X connect 57 0 58 0;
#X connect 57 0 59 0;
#X connect 58 0 57 1;
#X connect 59 0 65 0;
#X connect 62 0 0 2;
#X connect 64 0 0 2;
#X connect 64 0 63 0;
#X connect 74 0 75 0;
#X connect 75 0 76 0;
#X connect 82 0 83 0;
#X connect 83 0 0 2;
#X connect 84 0 6 0;
#X connect 84 1 67 0;
#X connect 84 2 86 0;
#X connect 86 0 87 0;
#X connect 86 1 85 0;
#X connect 87 0 88 0;
#X connect 93 0 84 0;
#X connect 93 0 94 0;
#X connect 93 1 50 0;
#X connect 93 2 50 0;
#X connect 93 3 50 0;
#X connect 93 4 61 0;
#X connect 93 5 81 0;
#X connect 93 6 74 0;
#X connect 93 6 71 0;
#X connect 93 7 72 0;
#X connect 94 1 56 0;
#X connect 96 0 97 0;
#X coords 0 -1 1 1 300 250 1 20 100;
