#N canvas 608 321 495 330 12;
#X obj 32 15 inlet;
#X obj 46 156 hradio 15 1 0 3 nchan-\$1 nchan-\$1-set nchan_0|1|2 0
-8 0 10 -262144 -1 -1 0;
#X obj 133 156 hradio 15 1 0 3 block-\$1 block-\$1-set block_64|128|256
0 -8 0 10 -262144 -1 -1 0;
#X obj 99 156 tgl 15 0 2x-\$1 2x-\$1-set 2x 17 7 0 10 -262144 -1 -1
0 1;
#X symbolatom 130 68 16 0 0 0 call-name-#1 call-name-#1-set call-name-#1
;
#X obj 193 156 tgl 15 0 status-\$1 status-\$1-set status 17 7 0 10
-232576 -1 -1 0 1;
#X obj 46 107 tgl 15 0 onoff-\$1 onoff-\$1-set onoff 17 7 0 10 -204786
-1 -1 0 1;
#X obj 99 121 nbx 2 15 0 99 0 0 fifo-\$1 fifo-\$1-set fifo 0 -7 0 10
-262144 -1 -1 20 256;
#X obj 46 89 tgl 15 0 quack-start-\$1 quack-start-\$1-set quack-start-\$1
17 7 0 10 -262130 -1 -1 0 1;
#X symbolatom 130 46 16 0 0 0 server-#1 server-#1-set server-#1;
#X obj 45 46 tgl 21 0 dsp-\$1 dsp-\$1-set dsp 2 10 0 10 -262144 -1
-1 0 1;
#X obj 46 126 tgl 15 0 gui-\$1 gui-\$1-set gui 17 7 0 10 -204800 -1
-1 0 1;
#N canvas 376 76 668 425 to_gui 0;
#X obj 21 17 inlet;
#X obj 87 374 outlet;
#X text 147 374 <-- for clarity only;
#X obj 21 52 _route server \$1 symbol;
#X obj 21 78 _route call-name \$1 symbol;
#X obj 21 104 _route dsp \$1;
#X obj 21 130 _route onoff \$1;
#X obj 21 156 _route fifo \$1;
#X obj 21 182 _route block \$1;
#X obj 21 208 _route nchan \$1;
#X obj 21 234 _route 2x \$1;
#X obj 21 260 _route quack-start \$1;
#X obj 21 290 _route gui \$1;
#X obj 277 45 route insig outsig;
#X obj 400 216 list prepend NOT_PARSED;
#X obj 400 287 print [quacker \$1];
#X obj 400 246 list trim;
#X obj 277 71 list prepend insig-\$1 q-adc;
#X obj 293 103 list prepend outsig-\$1 q-dac;
#X msg 277 145 \; \$1-1 set \$2-\$3 \; \$1-2 set \$2-\$4 \;;
#X connect 0 0 3 0;
#X connect 3 0 4 0;
#X connect 4 0 5 0;
#X connect 5 0 6 0;
#X connect 6 0 7 0;
#X connect 7 0 8 0;
#X connect 8 0 9 0;
#X connect 9 0 10 0;
#X connect 10 0 11 0;
#X connect 11 0 12 0;
#X connect 12 0 13 0;
#X connect 13 0 17 0;
#X connect 13 1 18 0;
#X connect 13 2 14 0;
#X connect 14 0 16 0;
#X connect 16 0 15 0;
#X connect 17 0 19 0;
#X connect 18 0 19 0;
#X restore 32 183 pd to_gui ____________________;
#N canvas 71 106 1171 575 from_gui 0;
#X obj 23 322 list trim;
#X msg 23 94 server \$1;
#X msg 109 94 call-name \$1;
#X msg 290 94 onoff \$1;
#X msg 218 94 fifo \$1;
#X obj 109 65 r call-name-\$1;
#X obj 23 296 list prepend quack-panel-1;
#X msg 498 121 pd dsp \$1;
#X obj 23 65 r server-\$1;
#X obj 498 414 outlet;
#X obj 633 65 r quack-start-\$1;
#X msg 548 321 pd~ stop;
#X obj 656 180 f;
#X obj 656 214 sel 0 1;
#X msg 679 279 pd~ start quack2~.pd;
#X msg 656 251 pd~ start -nogui -stderr quack2~.pd;
#X obj 218 65 r fifo-\$1;
#X obj 290 65 r onoff-\$1;
#X obj 498 65 r dsp-\$1;
#X obj 29 15 inlet;
#X text 82 12 <-- for clarity only;
#X obj 371 65 r nchan-\$1;
#X msg 371 94 nchan \$1;
#X obj 371 127 r 2x-\$1;
#X msg 371 153 2x \$1;
#X obj 371 189 r block-\$1;
#X msg 371 215 block \$1;
#X obj 633 103 sel 0 1;
#X obj 674 152 r gui-\$1;
#X obj 678 470 s dsp-\$1-set;
#X obj 710 427 s onoff-\$1-set;
#X obj 678 397 t f f;
#X msg 678 371 0;
#X obj 548 279 t b b;
#X obj 855 310 r loaded-\$1;
#X obj 855 430 s dsp-\$1-set;
#X msg 855 376 1;
#X obj 855 339 t b b;
#X msg 990 359 server \, call-name \, fifo \, block \, nchan, f 18
;
#X obj 990 405 symbol;
#X obj 990 431 pack s \$1;
#X msg 990 457 symbol \$1-\$2-set;
#X obj 990 483 t b a;
#X obj 990 509 s;
#X obj 955 250 bng 15 250 50 0 loaded-\$1 loaded-\$1-set loaded-\$1
17 7 0 10 -262144 -1 -1;
#X connect 0 0 9 0;
#X connect 1 0 6 0;
#X connect 2 0 6 0;
#X connect 3 0 6 0;
#X connect 4 0 6 0;
#X connect 5 0 2 0;
#X connect 6 0 0 0;
#X connect 7 0 9 0;
#X connect 8 0 1 0;
#X connect 10 0 27 0;
#X connect 11 0 9 0;
#X connect 12 0 13 0;
#X connect 13 0 15 0;
#X connect 13 1 14 0;
#X connect 14 0 9 0;
#X connect 15 0 9 0;
#X connect 16 0 4 0;
#X connect 17 0 3 0;
#X connect 18 0 7 0;
#X connect 21 0 22 0;
#X connect 22 0 6 0;
#X connect 23 0 24 0;
#X connect 24 0 6 0;
#X connect 25 0 26 0;
#X connect 26 0 6 0;
#X connect 27 0 33 0;
#X connect 27 1 12 0;
#X connect 28 0 12 1;
#X connect 31 0 29 0;
#X connect 31 1 30 0;
#X connect 32 0 31 0;
#X connect 33 0 11 0;
#X connect 33 1 32 0;
#X connect 34 0 37 0;
#X connect 36 0 35 0;
#X connect 37 0 36 0;
#X connect 37 1 38 0;
#X connect 38 0 39 0;
#X connect 39 0 40 0;
#X connect 40 0 41 0;
#X connect 41 0 42 0;
#X connect 42 0 43 0;
#X connect 42 1 43 1;
#X restore 32 208 pd from_gui __________________;
#N canvas 263 79 429 357 subprocess 0;
#X obj 35 187 pd~ -ninsig 2 -noutsig 2 -fifo 5;
#X obj 45 70 r insig-\$1-1;
#X obj 256 70 r insig-\$1-2;
#X obj 157 263 r outsig-\$1-1;
#X obj 274 263 r outsig-\$1-2;
#X obj 35 20 inlet;
#X obj 35 292 outlet;
#X obj 145 293 throw~;
#X obj 256 293 throw~;
#X obj 151 212 env~ 4096;
#X obj 261 212 env~ 4096;
#X obj 261 238 s \$0-env-2;
#X obj 151 238 s \$0-env-1;
#X obj 51 122 env~ 4096;
#X obj 262 122 env~ 4096;
#X obj 51 148 s \$0-inv-1;
#X obj 262 148 s \$0-inv-2;
#X obj 45 96 receive~ q-adc-1;
#X obj 256 96 receive~ q-adc-2;
#X connect 0 0 6 0;
#X connect 0 1 7 0;
#X connect 0 1 9 0;
#X connect 0 2 8 0;
#X connect 0 2 10 0;
#X connect 1 0 17 0;
#X connect 2 0 18 0;
#X connect 3 0 7 0;
#X connect 4 0 8 0;
#X connect 5 0 0 0;
#X connect 9 0 12 0;
#X connect 10 0 11 0;
#X connect 13 0 15 0;
#X connect 14 0 16 0;
#X connect 17 0 0 0;
#X connect 17 0 13 0;
#X connect 18 0 0 1;
#X connect 18 0 14 0;
#X restore 32 233 pd subprocess ________________;
#N canvas 0 22 450 300 status 0;
#X obj 54 125 s status-\$1-set;
#X obj 54 43 route float bang;
#X obj 108 97 s loaded-\$1-set;
#X obj 54 84 t f f;
#X msg 85 178 status \$1;
#X msg 226 90 loaded;
#X obj 108 70 t b b;
#X obj 54 14 inlet;
#X obj 230 233 outlet;
#X connect 1 0 3 0;
#X connect 1 1 6 0;
#X connect 1 2 8 0;
#X connect 3 0 0 0;
#X connect 3 1 4 0;
#X connect 4 0 8 0;
#X connect 5 0 8 0;
#X connect 6 0 2 0;
#X connect 6 1 5 0;
#X connect 7 0 1 0;
#X restore 32 258 pd status ____________________;
#X obj 32 283 print [quacker \$1];
#X obj 169 121 nbx 3 14 0 100 0 0 empty \$0-env-1 empty 0 -8 0 10 -262144
-1 -1 0 256;
#X obj 209 121 nbx 3 14 0 100 0 0 empty \$0-env-2 empty 0 -8 0 10 -262144
-1 -1 0 256;
#X obj 169 101 nbx 3 14 0 100 0 0 empty \$0-inv-1 empty 0 -8 0 10 -262144
-1 -1 58.9126 256;
#X obj 209 101 nbx 3 14 0 100 0 0 empty \$0-inv-2 empty 0 -8 0 10 -262144
-1 -1 58.9134 256;
#X text 135 97 in;
#X text 133 115 out;
#X connect 0 0 12 0;
#X connect 12 0 13 0;
#X connect 13 0 14 0;
#X connect 14 0 15 0;
#X connect 15 0 16 0;
#X coords 0 -1 1 1 208 136 2 40 40;
