#N canvas 521 46 740 404 12;
#X obj 344 24 inlet;
#X obj 110 196 hradio 15 1 0 3 nchan-\$1 nchan-\$1-set nchan_0|1|2
0 -8 0 10 -262144 -1 -1 0;
#X obj 185 196 hradio 15 1 0 3 block-\$1 block-\$1-set block_64|128|256
0 -8 0 10 -262144 -1 -1 0;
#X obj 265 195 tgl 15 0 2x-\$1 2x-\$1-set 2x 17 7 0 10 -262144 -1 -1
0 1;
#X symbolatom 204 105 13 0 0 0 call-name-#1 call-name-#1-set call-name-#1
;
#X obj 241 129 tgl 15 0 status-\$1 status-\$1-set status 17 7 0 12
-204800 -1 -1 0 1;
#X obj 105 129 tgl 15 0 onoff-\$1 onoff-\$1-set onoff 17 7 0 12 -204786
-1 -1 0 1;
#X obj 203 129 nbx 2 15 0 99 0 0 fifo-\$1 fifo-\$1-set fifo -22 6 0
12 -262144 -1 -1 0 256;
#X obj 105 108 tgl 15 0 quack-start-\$1 quack-start-\$1-set empty 17
7 0 10 -262130 -1 -1 0 1;
#X symbolatom 168 162 18 0 0 0 server-#1 server-#1-set server-#1;
#X obj 156 129 tgl 20 0 dsp-\$1 dsp-\$1-set dsp 2 10 0 10 -262144 -1
-1 0 1;
#X obj 105 148 tgl 15 0 gui-\$1 gui-\$1-set gui 17 7 0 10 -262144 -1
-1 0 1;
#X obj 344 273 route float;
#X obj 344 188 pd~ -ninsig 2 -noutsig 2 -fifo 5;
#X obj 344 337 s status-\$1-set;
#X obj 357 131 r insig-\$1-1;
#X obj 565 131 r insig-\$1-2;
#X obj 466 214 r outsig-\$1-1;
#X obj 583 214 r outsig-\$1-2;
#N canvas 376 76 668 425 to_gui 0;
#X obj 21 17 inlet;
#X obj 87 374 outlet;
#X text 147 374 <-- for clarity only;
#X obj 21 52 _route server \$1 symbol;
#X obj 21 78 _route call-name \$1 symbol;
#X obj 21 104 _route dsp \$1;
#X obj 21 130 _route onoff \$1;
#X obj 21 156 _route fifo \$1;
#X obj 21 182 _route block \$1;
#X obj 21 208 _route nchan \$1;
#X obj 21 234 _route 2x \$1;
#X obj 21 260 _route quack-start \$1;
#X obj 21 290 _route gui \$1;
#X obj 277 45 route insig outsig;
#X obj 277 71 list prepend insig-\$1;
#X msg 277 145 \; \$1-1 set \$2 \; \$1-2 set \$3 \;;
#X obj 292 103 list prepend outsig-\$1;
#X obj 400 166 list prepend NOT_PARSED;
#X obj 400 287 print quack-sub-\$1;
#X connect 0 0 3 0;
#X connect 3 0 4 0;
#X connect 4 0 5 0;
#X connect 5 0 6 0;
#X connect 6 0 7 0;
#X connect 7 0 8 0;
#X connect 8 0 9 0;
#X connect 9 0 10 0;
#X connect 10 0 11 0;
#X connect 11 0 12 0;
#X connect 12 0 13 0;
#X connect 13 0 14 0;
#X connect 13 1 16 0;
#X connect 13 2 17 0;
#X connect 14 0 15 0;
#X connect 16 0 15 0;
#X connect 17 0 18 0;
#X restore 344 49 pd to_gui;
#N canvas 56 189 1084 544 from_gui 0;
#X obj 23 322 list trim;
#X msg 23 94 server \$1;
#X msg 109 94 call-name \$1;
#X msg 290 94 onoff \$1;
#X msg 218 94 fifo \$1;
#X obj 109 65 r call-name-\$1;
#X obj 23 296 list prepend quack-panel-1;
#X msg 498 121 pd dsp \$1;
#X obj 23 65 r server-\$1;
#X obj 498 414 outlet;
#X obj 633 65 r quack-start-\$1;
#X msg 548 321 pd~ stop;
#X obj 795 175 f;
#X obj 795 209 sel 0 1;
#X msg 818 274 pd~ start quack2~.pd;
#X msg 795 246 pd~ start -nogui -stderr quack2~.pd;
#X obj 656 154 t b b;
#X obj 218 65 r fifo-\$1;
#X obj 290 65 r onoff-\$1;
#X obj 498 65 r dsp-\$1;
#X obj 29 15 inlet;
#X text 82 12 <-- for clarity only;
#X obj 371 65 r nchan-\$1;
#X msg 371 94 nchan \$1;
#X obj 371 127 r 2x-\$1;
#X msg 371 153 2x \$1;
#X obj 371 189 r block-\$1;
#X msg 371 215 block \$1;
#X obj 656 187 del 1000;
#N canvas 0 22 450 300 update-gui 0;
#X obj 54 165 s dsp-\$1-set;
#X obj 22 213 s onoff-\$1-set;
#X msg 22 105 1;
#X obj 22 68 t b b;
#X obj 22 131 t f f;
#X msg 157 108 server \, call-name \, fifo \, block \, nchan;
#X obj 157 134 symbol;
#X obj 157 160 pack s \$1;
#X msg 157 186 symbol \$1-\$2-set;
#X obj 157 212 t b a;
#X obj 157 238 s;
#X obj 22 37 inlet;
#X connect 2 0 4 0;
#X connect 3 0 2 0;
#X connect 3 1 5 0;
#X connect 4 0 1 0;
#X connect 4 1 0 0;
#X connect 5 0 6 0;
#X connect 6 0 7 0;
#X connect 7 0 8 0;
#X connect 8 0 9 0;
#X connect 9 0 10 0;
#X connect 9 1 10 1;
#X connect 11 0 3 0;
#X restore 656 216 pd update-gui;
#X obj 633 103 sel 0 1;
#X obj 813 147 r gui-\$1;
#X obj 678 470 s dsp-\$1-set;
#X obj 710 427 s onoff-\$1-set;
#X obj 678 397 t f f;
#X msg 678 371 0;
#X obj 548 279 t b b;
#X connect 0 0 9 0;
#X connect 1 0 6 0;
#X connect 2 0 6 0;
#X connect 3 0 6 0;
#X connect 4 0 6 0;
#X connect 5 0 2 0;
#X connect 6 0 0 0;
#X connect 7 0 9 0;
#X connect 8 0 1 0;
#X connect 10 0 30 0;
#X connect 11 0 9 0;
#X connect 12 0 13 0;
#X connect 13 0 15 0;
#X connect 13 1 14 0;
#X connect 14 0 9 0;
#X connect 15 0 9 0;
#X connect 16 0 28 0;
#X connect 16 1 12 0;
#X connect 17 0 4 0;
#X connect 18 0 3 0;
#X connect 19 0 7 0;
#X connect 22 0 23 0;
#X connect 23 0 6 0;
#X connect 24 0 25 0;
#X connect 25 0 6 0;
#X connect 26 0 27 0;
#X connect 27 0 6 0;
#X connect 28 0 29 0;
#X connect 30 0 36 0;
#X connect 30 1 16 0;
#X connect 31 0 12 1;
#X connect 34 0 32 0;
#X connect 34 1 33 0;
#X connect 35 0 34 0;
#X connect 36 0 11 0;
#X connect 36 1 35 0;
#X restore 344 77 pd from_gui;
#X obj 418 300 print quack-sub-\$1;
#X obj 357 157 adc~ 1;
#X obj 565 157 adc~ 2;
#X obj 454 244 dac~ 1;
#X obj 565 244 dac~ 2;
#X connect 0 0 19 0;
#X connect 12 0 14 0;
#X connect 12 1 21 0;
#X connect 13 0 12 0;
#X connect 13 1 24 0;
#X connect 13 2 25 0;
#X connect 15 0 22 0;
#X connect 16 0 23 0;
#X connect 17 0 24 0;
#X connect 18 0 25 0;
#X connect 19 0 20 0;
#X connect 20 0 13 0;
#X connect 22 0 13 0;
#X connect 23 0 13 1;
#X coords 0 -1 1 1 202 115 2 100 100;
