#N canvas 432 191 1164 639 12;
#X declare -path ..;
#X obj 22 28 inlet~;
#X obj 89 28 inlet~;
#X obj 326 29 inlet;
#N canvas 78 252 1160 618 reblock 0;
#X obj 48 90 inlet~ pad;
#X obj 47 117 *~ 32768;
#X obj 47 142 clip~ -32367 32767;
#X obj 47 167 /~ 256;
#X obj 79 205 wrap~;
#X obj 47 204 -~;
#X obj 46 351 +~;
#X obj 129 241 *~ 256;
#X obj 94 244 -~;
#X obj 46 323 lrshift~ -1;
#X obj 949 57 bang~;
#X obj 643 279 tabplay~ \$0-decodebuf;
#X obj 643 243 * 1024;
#X obj 711 316 lrshift~ 1;
#X obj 741 370 clip~ 0 1;
#X text 63 273 LSB;
#X text 13 323 MSB;
#X text 793 316 MSB;
#X obj 710 395 -~;
#X obj 741 395 *~ 256;
#X obj 741 345 -~ 127;
#X obj 642 396 /~ 32768;
#X obj 642 421 +~;
#X obj 644 451 outlet~;
#X obj 947 25 block~ 512 1 2;
#X obj 949 84 s \$0-bangtilde;
#X obj 641 20 r \$0-bangtilde;
#X obj 841 274 tabplay~ \$0-decodebuf;
#X obj 909 314 lrshift~ 1;
#X obj 939 368 clip~ 0 1;
#X obj 908 393 -~;
#X obj 939 393 *~ 256;
#X obj 939 343 -~ 127;
#X obj 840 395 /~ 32768;
#X obj 840 420 +~;
#X obj 841 448 outlet~;
#X obj 840 245 + 512;
#X obj 82 355 r \$0-bangtilde;
#X obj 267 103 inlet~ pad;
#X obj 266 130 *~ 32768;
#X obj 266 155 clip~ -32367 32767;
#X obj 266 180 /~ 256;
#X obj 298 218 wrap~;
#X obj 266 217 -~;
#X obj 264 357 +~;
#X obj 348 254 *~ 256;
#X obj 313 257 -~;
#X obj 264 329 lrshift~ -1;
#X text 287 284 LSB;
#X text 231 329 MSB;
#X obj 311 359 r \$0-bangtilde;
#X msg 311 384 start 512;
#X msg 82 380 start 0;
#X obj 46 412 tabwrite~ \$0-encodebuf;
#X obj 264 414 tabwrite~ \$0-encodebuf;
#X obj 710 420 /~ 128;
#X obj 908 418 /~ 128;
#X obj 807 145 v \$0-fifofill;
#X obj 642 76 - 1;
#X obj 642 50 v \$0-fifofill;
#X obj 642 132 t b f;
#X obj 643 159 v \$0-fifowrite;
#X obj 643 184 -;
#X obj 643 209 mod 50;
#X obj 681 185 r \$0-nbuf;
#X obj 95 270 clip~ 0 255;
#X obj 314 285 clip~ 0 255;
#X obj 763 92 moses 1;
#X obj 642 107 max 1;
#X obj 777 38 spigot;
#X obj 833 42 tgl 15 0 empty empty empty 17 7 0 10 -262144 -1 -1 0
1;
#X obj 777 63 text set poodle 1e+09;
#X text 610 397 LSB;
#X msg 764 117 1;
#X obj 1016 337 s \$0-status;
#X msg 1016 312 late;
#X obj 1048 129 b;
#X obj 1015 260 v \$0-state;
#X obj 1015 285 sel 1 3;
#X obj 1017 186 timer;
#X obj 1017 211 moses 100;
#X obj 1018 235 b;
#X text 46 50 input audio to "encode" table to send to net;
#X obj 517 96 tabread \$0-valid;
#X obj 515 126 v \$0-packet-valid;
#X obj 1017 156 r \$0-got-packet;
#X obj 385 91 tabwrite \$0-valid;
#X obj 440 13 0;
#X obj 517 20 t b b f;
#X obj 444 59 s \$0-report-stats;
#X connect 0 0 1 0;
#X connect 1 0 2 0;
#X connect 2 0 3 0;
#X connect 2 0 8 0;
#X connect 3 0 4 0;
#X connect 3 0 5 0;
#X connect 4 0 5 1;
#X connect 5 0 7 0;
#X connect 5 0 9 0;
#X connect 6 0 53 0;
#X connect 7 0 8 1;
#X connect 8 0 65 0;
#X connect 9 0 6 0;
#X connect 10 0 25 0;
#X connect 11 0 13 0;
#X connect 11 0 21 0;
#X connect 12 0 11 0;
#X connect 12 0 36 0;
#X connect 13 0 20 0;
#X connect 13 0 18 0;
#X connect 14 0 19 0;
#X connect 18 0 55 0;
#X connect 19 0 18 1;
#X connect 20 0 14 0;
#X connect 21 0 22 0;
#X connect 22 0 23 0;
#X connect 26 0 59 0;
#X connect 27 0 28 0;
#X connect 27 0 33 0;
#X connect 28 0 32 0;
#X connect 28 0 30 0;
#X connect 29 0 31 0;
#X connect 30 0 56 0;
#X connect 31 0 30 1;
#X connect 32 0 29 0;
#X connect 33 0 34 0;
#X connect 34 0 35 0;
#X connect 36 0 27 0;
#X connect 37 0 52 0;
#X connect 38 0 39 0;
#X connect 39 0 40 0;
#X connect 40 0 41 0;
#X connect 40 0 46 0;
#X connect 41 0 42 0;
#X connect 41 0 43 0;
#X connect 42 0 43 1;
#X connect 43 0 45 0;
#X connect 43 0 47 0;
#X connect 44 0 54 0;
#X connect 45 0 46 1;
#X connect 46 0 66 0;
#X connect 47 0 44 0;
#X connect 50 0 51 0;
#X connect 51 0 54 0;
#X connect 52 0 53 0;
#X connect 55 0 22 1;
#X connect 56 0 34 1;
#X connect 58 0 67 0;
#X connect 58 0 68 0;
#X connect 59 0 58 0;
#X connect 59 0 69 0;
#X connect 60 0 61 0;
#X connect 60 1 62 1;
#X connect 61 0 62 0;
#X connect 62 0 63 0;
#X connect 63 0 12 0;
#X connect 63 0 88 0;
#X connect 64 0 63 1;
#X connect 65 0 6 1;
#X connect 66 0 44 1;
#X connect 67 0 73 0;
#X connect 67 0 76 0;
#X connect 67 1 57 0;
#X connect 68 0 60 0;
#X connect 69 0 71 0;
#X connect 70 0 69 1;
#X connect 73 0 57 0;
#X connect 75 0 74 0;
#X connect 76 0 79 1;
#X connect 77 0 78 0;
#X connect 78 0 75 0;
#X connect 78 1 75 0;
#X connect 79 0 80 0;
#X connect 80 0 81 0;
#X connect 81 0 77 0;
#X connect 83 0 84 0;
#X connect 85 0 79 0;
#X connect 87 0 86 0;
#X connect 88 0 87 0;
#X connect 88 1 89 0;
#X connect 88 2 86 1;
#X connect 88 2 83 0;
#X restore 21 56 pd reblock;
#X obj 78 162 spigot;
#X obj 41 139 tgl 15 0 empty empty empty 17 7 0 10 -262144 -1 -1 0
1;
#X obj 375 87 t f b;
#X obj 326 88 t a b;
#X obj 21 85 outlet~;
#X obj 31 269 sel 0;
#X obj 31 295 del 3000;
#X obj 282 493 array define \$0-encodebuf 1024;
#X obj 87 84 outlet~;
#X obj 282 520 array define \$0-decodebuf 102400;
#X floatatom 972 377 5 0 0 0 - - -;
#X floatatom 880 375 5 0 0 0 - - -;
#X obj 972 352 v \$0-fifowrite;
#X obj 873 350 v \$0-fifofill;
#X obj 691 37 loadbang;
#X obj 549 122 s \$0-nbuf;
#X obj 621 122 s \$0-nchan;
#X msg 691 62 2;
#N canvas 608 158 764 647 format-send-msg 0;
#X obj 145 472 list trim;
#X obj 194 20 r \$0-bangtilde;
#X obj 156 387 array get \$0-encodebuf;
#X obj 145 415 list prepend send 0 0 0 0 0 0 0 0 0 0 0 1 2 16 2 2,
f 18;
#X obj 193 48 v \$0-nchan;
#X obj 193 73 sel 0 1;
#X obj 103 116 f;
#X obj 103 166 mod 1000;
#X obj 103 141 + 1;
#X obj 103 191 sel 0;
#X msg 212 114 512;
#X msg 250 115 1024;
#X obj 536 287 samplerate~;
#X msg 341 447 list send 0 0 0 0 0 0 0 0 \$1 \$2 \$3 \$4 \$5 16 2 2
;
#X obj 209 152 t b f b b;
#X obj 341 418 pack 0 0 0 0 0;
#X obj 341 282 f;
#X obj 341 307 + 1;
#X obj 341 332 & 65535;
#X obj 341 357 t f f;
#X obj 341 384 & 255;
#X obj 536 312 > 44100;
#X obj 536 337 + 2;
#X obj 424 283 256;
#X obj 423 314 t f f;
#X obj 423 341 & 255;
#X text 420 249 blocksize in samples, f 10;
#X text 526 237 sample rate (44100 or 48000 only), f 18;
#X obj 383 386 >> 8;
#X obj 465 343 >> 8;
#X obj 213 526 spigot;
#X obj 253 499 tgl 15 0 empty empty empty 17 7 0 10 -262144 -1 -1 0
1;
#X obj 236 557 b;
#X obj 236 582 del 1;
#X msg 229 608 0;
#X obj 193 596 print;
#X obj 59 548 s \$0-packet-out;
#X obj 163 232 spigot;
#X obj 217 228 r \$0-repeat;
#X obj 220 260 tgl 15 0 empty empty empty 17 7 0 10 -262144 -1 -1 0
1;
#X obj 159 259 del 3;
#X connect 0 0 30 0;
#X connect 0 0 36 0;
#X connect 1 0 4 0;
#X connect 2 0 3 0;
#X connect 3 0 0 0;
#X connect 4 0 5 0;
#X connect 5 0 6 0;
#X connect 5 1 10 0;
#X connect 5 2 11 0;
#X connect 6 0 8 0;
#X connect 7 0 6 1;
#X connect 7 0 9 0;
#X connect 8 0 7 0;
#X connect 9 0 3 0;
#X connect 10 0 14 0;
#X connect 11 0 14 0;
#X connect 12 0 21 0;
#X connect 13 0 3 1;
#X connect 14 0 2 0;
#X connect 14 0 37 0;
#X connect 14 1 2 1;
#X connect 14 2 16 0;
#X connect 14 3 12 0;
#X connect 14 3 23 0;
#X connect 15 0 13 0;
#X connect 16 0 17 0;
#X connect 17 0 18 0;
#X connect 18 0 16 1;
#X connect 18 0 19 0;
#X connect 19 0 20 0;
#X connect 19 1 28 0;
#X connect 20 0 15 0;
#X connect 21 0 22 0;
#X connect 22 0 15 4;
#X connect 23 0 24 0;
#X connect 24 0 25 0;
#X connect 24 1 29 0;
#X connect 25 0 15 2;
#X connect 28 0 15 1;
#X connect 29 0 15 3;
#X connect 30 0 32 0;
#X connect 30 0 35 0;
#X connect 31 0 30 1;
#X connect 32 0 33 0;
#X connect 33 0 34 0;
#X connect 34 0 31 0;
#X connect 37 0 40 0;
#X connect 38 0 39 0;
#X connect 39 0 37 1;
#X connect 40 0 2 0;
#X restore 164 19 pd format-send-msg;
#X obj 877 400 hsl 128 15 0 127 0 0 empty empty empty -2 -8 0 10 -262144
-1 -1 0 1;
#N canvas 1142 333 587 489 test-packets 0;
#X obj 87 387 outlet;
#X obj 93 194 text get poodle;
#X obj 286 94 text size poodle;
#X floatatom 301 49 5 0 0 0 - - -;
#X floatatom 286 119 5 0 0 0 - - -;
#X obj 95 38 r \$0-bangtilde;
#X obj 95 63 f;
#X obj 95 88 + 1;
#X obj 272 56 bng 15 250 50 0 empty empty empty 17 7 0 10 -262144 -1
-1;
#X obj 95 113 mod 1480;
#X obj 95 138 spigot;
#X obj 150 144 tgl 15 0 empty empty empty 17 7 0 10 -262144 -1 -1 0
1;
#X connect 2 0 4 0;
#X connect 3 0 2 0;
#X connect 5 0 6 0;
#X connect 6 0 7 0;
#X connect 7 0 9 0;
#X connect 8 0 2 0;
#X connect 9 0 6 1;
#X connect 9 0 10 0;
#X connect 10 0 1 0;
#X connect 11 0 10 1;
#X restore 183 68 pd test-packets;
#X obj 870 318 spigot;
#X obj 929 324 tgl 15 0 empty empty empty 17 7 0 10 -262144 -1 -1 0
1;
#X obj 78 231 netsend -u -b;
#X msg 657 61 50;
#X obj 483 121 s \$0-off;
#X obj 25 481 r \$0-off;
#X msg 25 506 0;
#X obj 25 531 s \$0-state;
#X text 793 29 states;
#X text 794 52 0 off;
#X text 791 89 2 server waiting for client;
#X text 790 111 3 server with connection;
#X obj 87 186 r \$0-to-netsend;
#X obj 31 320 v \$0-state;
#X obj 51 401 s \$0-restart-server;
#X obj 32 426 s \$0-do-start-client;
#X obj 120 305 v \$0-state;
#X obj 120 330 sel 3;
#X obj 120 278 b;
#X obj 603 271 r \$0-state;
#X floatatom 639 298 5 0 0 0 - - -;
#X obj 603 299 b;
#X obj 603 324 del 1;
#X obj 602 352 v \$0-port;
#X obj 679 354 v \$0-rtnport;
#X floatatom 602 377 5 0 0 0 - - -;
#X floatatom 679 379 5 0 0 0 - - -;
#X symbolatom 599 427 20 0 0 0 - - -;
#X obj 599 403 r \$0-host;
#X obj 180 239 bng 15 250 50 0 empty empty empty 17 7 0 10 -262144
-1 -1;
#X obj 14 226 bng 15 250 50 0 empty empty empty 17 7 0 10 -262144 -1
-1;
#X obj 773 594 outlet;
#X obj 792 567 r \$0-status;
#X text 411 267 start client. Args are host name/addr and port, f
20;
#X obj 31 345 sel 1 3 5;
#X obj 71 376 s \$0-restart-peer;
#X obj 424 87 t a b;
#X obj 14 202 b;
#X obj 105 212 bng 15 250 50 0 empty empty empty 17 7 0 10 -262144
-1 -1;
#X obj 10 270 bng 15 250 50 0 empty empty empty 17 7 0 10 -262144 -1
-1;
#X obj 178 44 r \$0-packet-in;
#X obj 166 274 s \$0-packet-in;
#X obj 78 131 r \$0-packet-out;
#X obj 327 57 route client server peer off nbuf nchan repeat;
#X obj 698 120 s \$0-repeat;
#N canvas 105 87 479 624 server 0;
#X floatatom 94 276 5 0 0 0 - - -;
#X msg 234 299 0;
#X msg 94 300 listen \$1;
#X obj 94 329 netreceive -u -b -f;
#X msg 161 172 2;
#X obj 161 197 s \$0-state;
#X obj 89 127 r \$0-restart-server;
#X obj 217 431 v \$0-port;
#X obj 223 506 v \$0-rtnport;
#X obj 117 515 s \$0-state;
#X msg 117 490 3;
#X obj 97 541 s \$0-do-start-client;
#X obj 131 464 s \$0-host;
#X obj 232 225 r \$0-state;
#X obj 233 249 != 2;
#X obj 233 274 sel 1;
#X obj 174 397 print from-netreceive;
#X obj 100 396 t b b l b;
#X obj 131 434 unpack s 0;
#X msg 241 169 symbol -;
#X obj 111 221 v \$0-listenport;
#X obj 223 482 v \$0-listenport;
#X obj 223 457 b;
#X obj 92 192 t f f b;
#X text 96 71 start server - arg is port to listen for, f 14;
#X obj 89 152 v \$0-listenport;
#X obj 94 358 s \$0-packet-in;
#X obj 27 146 inlet;
#X obj 241 195 s \$0-host;
#X connect 0 0 2 0;
#X connect 1 0 0 0;
#X connect 2 0 3 0;
#X connect 3 0 26 0;
#X connect 3 1 16 0;
#X connect 3 1 17 0;
#X connect 4 0 5 0;
#X connect 6 0 25 0;
#X connect 10 0 9 0;
#X connect 13 0 14 0;
#X connect 14 0 15 0;
#X connect 15 0 1 0;
#X connect 17 0 11 0;
#X connect 17 1 10 0;
#X connect 17 2 18 0;
#X connect 18 0 12 0;
#X connect 18 1 7 0;
#X connect 18 1 22 0;
#X connect 19 0 28 0;
#X connect 21 0 8 0;
#X connect 22 0 21 0;
#X connect 23 0 0 0;
#X connect 23 1 20 0;
#X connect 23 2 4 0;
#X connect 23 2 19 0;
#X connect 25 0 23 0;
#X connect 27 0 23 0;
#X restore 356 236 pd server;
#X text 789 134 4 peer-to-peer mode;
#N canvas 62 116 592 517 peer 0;
#X obj 154 71 inlet;
#X obj 138 208 s \$0-state;
#X msg 138 183 4;
#X obj 209 153 t b a a;
#X obj 121 394 s \$0-packet-in;
#X obj 123 279 r \$0-packet-out;
#X obj 122 311 spigot;
#X obj 306 363 route running;
#X obj 261 257 sel 1;
#X obj 179 314 tgl 15 0 empty empty empty 17 7 0 10 -262144 -1 -1 0
1;
#X obj 260 287 del 500;
#X obj 145 342 b;
#X msg 260 312 0;
#X obj 89 339 bng 15 250 50 0 empty empty empty 17 7 0 10 -262144 -1
-1;
#X obj 121 367 conniption-client -b;
#X msg 328 308 stop;
#X obj 267 158 print peer;
#X obj 231 188 list;
#X msg 231 214 stop \, server \$1 \, port \$2 \, start \$3;
#X obj 328 283 r \$0-off;
#X obj 258 405 s \$0-status;
#X connect 0 0 3 0;
#X connect 2 0 1 0;
#X connect 3 0 2 0;
#X connect 3 1 17 0;
#X connect 3 2 16 0;
#X connect 5 0 6 0;
#X connect 6 0 11 0;
#X connect 6 0 14 0;
#X connect 7 0 9 0;
#X connect 7 0 8 0;
#X connect 8 0 10 0;
#X connect 9 0 6 1;
#X connect 10 0 12 0;
#X connect 11 0 10 0;
#X connect 11 0 13 0;
#X connect 12 0 14 0;
#X connect 14 0 4 0;
#X connect 14 1 7 0;
#X connect 14 1 20 0;
#X connect 15 0 14 1;
#X connect 17 0 18 0;
#X connect 18 0 14 1;
#X connect 19 0 15 0;
#X restore 383 190 pd peer;
#X text 442 159 connect to peer. Args are connection server name/addr
\, port \, and connection name, f 29;
#N canvas 750 90 425 562 client 0;
#X obj 44 46 inlet;
#X obj 65 137 list;
#X msg 123 97 1;
#X obj 51 107 t b a b;
#X obj 123 127 s \$0-state;
#X obj 53 251 s \$0-do-start-client;
#X obj 66 164 unpack s 0;
#X obj 137 195 + 1;
#X obj 146 167 v \$0-port;
#X obj 137 221 v \$0-rtnport;
#X obj 65 196 s \$0-host;
#X msg 245 480 disconnect;
#X obj 245 452 t b b;
#X obj 245 427 r \$0-off;
#X obj 36 485 s \$0-to-netsend;
#X msg 35 456 disconnect \, connect \$1 \$2 \$3;
#X obj 35 428 pack s 0 0;
#X obj 33 355 t b b b;
#X obj 84 393 v \$0-port;
#X obj 155 395 v \$0-rtnport;
#X obj 32 328 r \$0-do-start-client;
#X obj 33 394 symbol;
#X obj 96 356 r \$0-host;
#X connect 0 0 3 0;
#X connect 1 0 6 0;
#X connect 2 0 4 0;
#X connect 3 0 5 0;
#X connect 3 1 1 0;
#X connect 3 2 2 0;
#X connect 6 0 10 0;
#X connect 6 1 7 0;
#X connect 6 1 8 0;
#X connect 7 0 9 0;
#X connect 11 0 14 0;
#X connect 12 0 11 0;
#X connect 13 0 12 0;
#X connect 15 0 14 0;
#X connect 16 0 15 0;
#X connect 17 0 21 0;
#X connect 17 1 18 0;
#X connect 17 2 19 0;
#X connect 18 0 16 1;
#X connect 19 0 16 2;
#X connect 20 0 17 0;
#X connect 21 0 16 0;
#X connect 22 0 21 1;
#X restore 330 277 pd client;
#X text 431 212 start server - arg is port to listen for, f 14;
#X text 793 69 1 client with known server addr;
#N canvas 608 198 1014 795 in-packet-fifo 0;
#X obj 43 385 v \$0-fifowrite;
#X obj 43 410 + 1;
#X obj 43 460 v \$0-fifowrite;
#X obj 28 516 + 1;
#X obj 386 513 * 1024;
#X obj 361 417 list split 16;
#X obj 291 496 list split 1024, f 10;
#X obj 339 568 array set \$0-decodebuf;
#X obj 579 464 list length;
#X obj 579 489 t f b;
#X obj 579 516 -;
#X obj 607 516 f;
#X obj 579 541 < 0;
#X obj 579 566 sel 1;
#X obj 579 620 s \$0-decodebuf;
#X obj 73 116 del 1000;
#X obj 312 24 inlet;
#X msg 579 595 const 0;
#X obj 43 435 mod 50;
#X obj 94 434 r \$0-nbuf;
#X obj 386 487 v \$0-fifowrite;
#X obj 631 568 bng 15 250 50 0 empty empty empty 17 7 0 10 -262144
-1 -1;
#X obj 33 563 clip 0 48;
#X obj 136 484 r \$0-nbuf;
#X obj 136 509 - 2;
#X obj 33 593 v \$0-fifofill;
#X obj 28 489 v \$0-fifofill;
#X obj 251 601 text set poodle 1e+09;
#X obj 251 575 spigot;
#X obj 308 573 tgl 15 0 empty empty empty 17 7 0 10 -262144 -1 -1 0
1;
#X obj 299 415 spigot;
#X obj 299 440 print;
#X obj 337 388 tgl 15 0 empty empty empty 17 7 0 10 -262144 -1 -1 0
1;
#X floatatom 548 128 5 0 0 0 - - -;
#X obj 738 495 array define \$0-sorry 1024;
#X obj 312 50 t b l l;
#X obj 72 172 s \$0-decodebuf;
#X msg 72 147 const 0;
#X obj 633 208 f;
#X obj 604 209 -;
#X obj 604 234 & 65535;
#X text 679 236 increment in packet # since last packet;
#X obj 562 42 list split 10;
#X obj 563 68 list split 8;
#X obj 604 261 moses 2;
#X obj 329 194 spigot;
#X obj 329 229 t b l;
#X obj 679 314 r \$0-nbuf;
#X obj 650 314 min;
#X obj 651 339 until;
#X obj 29 361 b;
#X obj 787 397 * 1024;
#X obj 788 371 v \$0-fifowrite;
#X obj 651 364 t b b;
#X obj 651 427 array set \$0-decodebuf;
#X obj 651 391 array get \$0-sorry;
#X obj 405 446 t l b l;
#X obj 367 138 loadbang;
#X msg 367 163 1;
#X obj 605 150 spigot;
#X obj 605 178 t f b f;
#X obj 653 121 sel 0;
#X msg 658 149 1;
#X obj 603 118 t f f;
#X text 699 123 if we ever see a nonzero packet \, enable packet count
checking, f 23;
#X obj 650 288 - 1;
#X text 691 274 supply (delta-1) packets of zeros, f 16;
#X text 754 312 up to nbuf;
#X obj 544 343 s \$0-status;
#X obj 135 544 -;
#X msg 544 318 miss \$1;
#X obj 150 619 s \$0-status;
#X obj 135 569 moses 1;
#X obj 603 93 expr $f1 + 256*$f2;
#X obj 189 171 s \$0-got-packet;
#X msg 150 596 drop;
#N canvas 0 50 450 300 count-or-print-packets 0;
#X obj 72 37 f;
#X obj 72 62 + 1;
#X obj 72 87 mod 100;
#X obj 72 112 sel 0;
#X obj 72 141 bng 15 250 50 0 empty empty empty 17 7 0 10 -262144 -1
-1;
#X obj 72 8 inlet;
#X obj 174 57 spigot;
#X obj 214 30 tgl 15 0 empty empty empty 17 7 0 10 -262144 -1 -1 0
1;
#X obj 197 88 b;
#X obj 197 113 del 1;
#X msg 190 139 0;
#X obj 154 127 print;
#X text 196 8 print one packet;
#X connect 0 0 1 0;
#X connect 1 0 2 0;
#X connect 2 0 0 1;
#X connect 2 0 3 0;
#X connect 3 0 4 0;
#X connect 5 0 0 0;
#X connect 5 0 6 0;
#X connect 6 0 8 0;
#X connect 6 0 11 0;
#X connect 7 0 6 1;
#X connect 8 0 9 0;
#X connect 9 0 10 0;
#X connect 10 0 7 0;
#X restore 344 79 pd count-or-print-packets;
#X obj 738 524 array define \$0-valid 100;
#X obj 869 428 tabwrite \$0-valid;
#X msg 869 402 0 \$1;
#X obj 436 539 tabwrite \$0-valid;
#X msg 436 513 1 \$1;
#X msg 458 644 \$13;
#X obj 458 669 sel 2 3;
#X obj 418 702 44100;
#X obj 466 706 48000;
#X msg 516 704 -1;
#X obj 421 734 v \$0-packet-sr;
#X connect 0 0 1 0;
#X connect 1 0 18 0;
#X connect 3 0 22 0;
#X connect 3 0 69 0;
#X connect 4 0 7 1;
#X connect 5 0 30 0;
#X connect 5 0 82 0;
#X connect 5 1 56 0;
#X connect 6 0 7 0;
#X connect 6 0 28 0;
#X connect 6 2 7 0;
#X connect 6 2 28 0;
#X connect 8 0 9 0;
#X connect 9 0 11 1;
#X connect 9 0 10 0;
#X connect 9 1 11 0;
#X connect 10 0 12 0;
#X connect 11 0 10 1;
#X connect 12 0 13 0;
#X connect 13 0 17 0;
#X connect 13 0 21 0;
#X connect 15 0 37 0;
#X connect 16 0 35 0;
#X connect 17 0 14 0;
#X connect 18 0 2 0;
#X connect 19 0 18 1;
#X connect 20 0 4 0;
#X connect 20 0 81 0;
#X connect 22 0 25 0;
#X connect 23 0 24 0;
#X connect 24 0 22 2;
#X connect 24 0 69 1;
#X connect 26 0 3 0;
#X connect 28 0 27 0;
#X connect 29 0 28 1;
#X connect 30 0 31 0;
#X connect 32 0 30 1;
#X connect 35 0 15 0;
#X connect 35 0 74 0;
#X connect 35 1 45 0;
#X connect 35 1 76 0;
#X connect 35 2 42 0;
#X connect 37 0 36 0;
#X connect 38 0 39 1;
#X connect 39 0 40 0;
#X connect 40 0 44 0;
#X connect 40 0 45 1;
#X connect 42 0 43 0;
#X connect 43 1 73 0;
#X connect 44 1 65 0;
#X connect 45 0 46 0;
#X connect 46 0 50 0;
#X connect 46 1 5 0;
#X connect 47 0 48 1;
#X connect 48 0 49 0;
#X connect 49 0 53 0;
#X connect 50 0 0 0;
#X connect 50 0 26 0;
#X connect 51 0 54 1;
#X connect 52 0 51 0;
#X connect 52 0 79 0;
#X connect 53 0 55 0;
#X connect 53 0 50 0;
#X connect 53 1 52 0;
#X connect 55 0 54 0;
#X connect 56 0 6 0;
#X connect 56 1 20 0;
#X connect 56 2 8 0;
#X connect 57 0 58 0;
#X connect 58 0 45 1;
#X connect 59 0 60 0;
#X connect 60 0 38 1;
#X connect 60 0 39 0;
#X connect 60 1 38 0;
#X connect 61 1 62 0;
#X connect 62 0 59 1;
#X connect 63 0 59 0;
#X connect 63 1 61 0;
#X connect 65 0 48 0;
#X connect 65 0 70 0;
#X connect 69 0 72 0;
#X connect 70 0 68 0;
#X connect 72 1 75 0;
#X connect 73 0 33 0;
#X connect 73 0 63 0;
#X connect 75 0 71 0;
#X connect 79 0 78 0;
#X connect 81 0 80 0;
#X connect 82 0 83 0;
#X connect 83 0 84 0;
#X connect 83 1 85 0;
#X connect 83 2 86 0;
#X connect 84 0 87 0;
#X connect 85 0 87 0;
#X connect 86 0 87 0;
#X restore 176 96 pd in-packet-fifo;
#X obj 282 455 declare -path ..;
#X floatatom 687 175 5 0 0 0 - - -;
#X obj 912 492 v \$0-fifofill;
#X obj 773 516 pack 0 0 0;
#X obj 777 449 t b b b;
#X obj 773 491 v \$0-packet-valid;
#X obj 1015 493 v \$0-packet-sr;
#X msg 772 541 got-packet \$1 \$2 \$3;
#X floatatom 710 525 5 0 0 0 - - -;
#X obj 796 252 r \$0-report-stats;
#X connect 0 0 3 0;
#X connect 1 0 3 1;
#X connect 2 0 68 0;
#X connect 3 0 8 0;
#X connect 3 1 12 0;
#X connect 4 0 27 0;
#X connect 4 0 62 0;
#X connect 5 0 4 1;
#X connect 6 0 70 0;
#X connect 6 1 29 0;
#X connect 7 0 74 0;
#X connect 7 1 29 0;
#X connect 9 0 10 0;
#X connect 9 0 64 0;
#X connect 10 0 38 0;
#X connect 16 0 14 0;
#X connect 17 0 15 0;
#X connect 17 0 23 0;
#X connect 18 0 28 0;
#X connect 18 0 21 0;
#X connect 21 0 20 0;
#X connect 24 0 77 0;
#X connect 25 0 16 0;
#X connect 25 0 17 0;
#X connect 26 0 25 1;
#X connect 27 0 5 0;
#X connect 27 0 9 0;
#X connect 27 1 43 0;
#X connect 27 1 54 0;
#X connect 27 1 66 0;
#X connect 28 0 19 0;
#X connect 30 0 31 0;
#X connect 31 0 32 0;
#X connect 37 0 27 0;
#X connect 37 0 63 0;
#X connect 38 0 59 0;
#X connect 41 0 42 0;
#X connect 42 0 10 0;
#X connect 43 0 41 0;
#X connect 44 0 45 0;
#X connect 44 0 46 0;
#X connect 46 0 47 0;
#X connect 47 0 48 0;
#X connect 47 0 49 0;
#X connect 48 0 50 0;
#X connect 49 0 51 0;
#X connect 53 0 52 0;
#X connect 57 0 56 0;
#X connect 59 0 40 0;
#X connect 59 1 39 0;
#X connect 59 2 60 0;
#X connect 61 0 72 0;
#X connect 61 1 29 0;
#X connect 62 0 55 0;
#X connect 65 0 77 0;
#X connect 67 0 4 0;
#X connect 68 0 7 0;
#X connect 68 1 6 0;
#X connect 68 2 61 0;
#X connect 68 3 29 0;
#X connect 68 4 19 0;
#X connect 68 5 20 0;
#X connect 68 6 69 0;
#X connect 80 0 81 1;
#X connect 81 0 85 0;
#X connect 82 0 83 0;
#X connect 82 1 80 0;
#X connect 82 2 84 0;
#X connect 83 0 81 0;
#X connect 83 0 86 0;
#X connect 84 0 81 2;
#X connect 85 0 56 0;
#X connect 87 0 25 0;
#X connect 87 0 82 0;
